<svg width="20" height="20" viewBox="0 0 20 20" fill="none" xmlns="http://www.w3.org/2000/svg">
<path d="M19.8425 10.6263C19.8425 10.7506 19.7931 10.8698 19.7052 10.9578C19.6173 11.0457 19.4981 11.095 19.3738 11.095H17.9675V12.5013C17.9675 12.6256 17.9181 12.7448 17.8302 12.8328C17.7423 12.9207 17.6231 12.97 17.4988 12.97C17.3745 12.97 17.2552 12.9207 17.1673 12.8328C17.0794 12.7448 17.03 12.6256 17.03 12.5013V11.095H15.6238C15.4995 11.095 15.3802 11.0457 15.2923 10.9578C15.2044 10.8698 15.155 10.7506 15.155 10.6263C15.155 10.502 15.2044 10.3828 15.2923 10.2948C15.3802 10.2069 15.4995 10.1575 15.6238 10.1575H17.03V8.7513C17.03 8.62698 17.0794 8.50775 17.1673 8.41984C17.2552 8.33193 17.3745 8.28255 17.4988 8.28255C17.6231 8.28255 17.7423 8.33193 17.8302 8.41984C17.9181 8.50775 17.9675 8.62698 17.9675 8.7513V10.1575H19.3738C19.4981 10.1575 19.6173 10.2069 19.7052 10.2948C19.7931 10.3828 19.8425 10.502 19.8425 10.6263ZM15.3574 15.3247C15.3992 15.3715 15.4312 15.4262 15.4514 15.4856C15.4717 15.545 15.4798 15.6078 15.4754 15.6704C15.4709 15.733 15.4539 15.794 15.4254 15.8499C15.3969 15.9058 15.3575 15.9554 15.3095 15.9958C15.2615 16.0362 15.2059 16.0665 15.1459 16.085C15.0859 16.1035 15.0229 16.1097 14.9605 16.1034C14.8981 16.0971 14.8375 16.0783 14.7825 16.0481C14.7275 16.018 14.6791 15.9771 14.6402 15.9279C13.0378 14.0208 10.8339 12.97 8.43628 12.97C6.03862 12.97 3.8355 14.0208 2.23237 15.9279C2.15116 16.0188 2.03774 16.0744 1.91616 16.0831C1.79458 16.0918 1.6744 16.0528 1.58112 15.9743C1.48783 15.8959 1.42877 15.7842 1.41646 15.6629C1.40415 15.5416 1.43956 15.4203 1.51518 15.3247C2.74409 13.8615 4.29565 12.8513 6.0144 12.3646C4.99883 11.8243 4.1931 10.9598 3.72541 9.90883C3.25771 8.85783 3.15491 7.68061 3.43335 6.56445C3.71179 5.44829 4.35548 4.4573 5.26203 3.74912C6.16858 3.04094 7.28591 2.65625 8.43628 2.65625C9.58664 2.65625 10.704 3.04094 11.6105 3.74912C12.5171 4.4573 13.1608 5.44829 13.4392 6.56445C13.7176 7.68061 13.6148 8.85783 13.1471 9.90883C12.6795 10.9598 11.8737 11.8243 10.8582 12.3646C12.5769 12.8513 14.1285 13.8615 15.3574 15.3247ZM8.43628 12.0325C9.27067 12.0325 10.0863 11.7851 10.7801 11.3216C11.4739 10.858 12.0146 10.1991 12.3339 9.42824C12.6532 8.65737 12.7367 7.80912 12.574 6.99076C12.4112 6.1724 12.0094 5.4207 11.4194 4.83069C10.8294 4.24069 10.0777 3.83889 9.25931 3.67611C8.44096 3.51333 7.59271 3.59688 6.82183 3.91618C6.05096 4.23549 5.39208 4.77622 4.92851 5.46999C4.46495 6.16376 4.21753 6.97941 4.21753 7.8138C4.21877 8.9323 4.66364 10.0046 5.45454 10.7955C6.24544 11.5864 7.31778 12.0313 8.43628 12.0325Z" fill="white"/>
</svg>
