<svg width="15" height="15" viewBox="0 0 15 15" fill="none" xmlns="http://www.w3.org/2000/svg">
<path d="M7.03125 1.6875V8.25H7.96875V1.6875H7.03125Z" fill="#5F5F5F"/>
<path d="M2.81284 9.01127C2.81271 8.17407 3.0368 7.35212 3.46183 6.63083C3.88685 5.90954 4.49729 5.31525 5.22971 4.90971L4.77503 4.09033C3.68802 4.69227 2.83091 5.63718 2.3375 6.77756C1.8441 7.91794 1.74216 9.1896 2.04762 10.394C2.35307 11.5984 3.04872 12.6678 4.02596 13.4352C5.00321 14.2026 6.20704 14.6248 7.44953 14.636C8.69203 14.6471 9.90325 14.2466 10.8941 13.4968C11.885 12.7471 12.5997 11.6904 12.9267 10.4916C13.2537 9.29288 13.1746 8.0196 12.7018 6.87056C12.2289 5.72151 11.3889 4.76136 10.3128 4.14002L9.84315 4.95096C10.5559 5.36222 11.1478 5.95386 11.5593 6.66639C11.9709 7.37893 12.1877 8.18725 12.1878 9.01011C12.188 9.83297 11.9715 10.6414 11.5602 11.3541C11.1489 12.0668 10.5572 12.6586 9.84468 13.0701C9.13212 13.4817 8.32378 13.6984 7.50092 13.6985C6.67806 13.6986 5.86966 13.4821 5.157 13.0707C4.44434 12.6594 3.85252 12.0677 3.44103 11.3551C3.02954 10.6425 2.81289 9.83413 2.81284 9.01127Z" fill="#5F5F5F"/>
<line x1="1.14645" y1="14.417" x2="13.4372" y2="2.12621" stroke="#5F5F5F"/>
</svg>