<svg width="22" height="22" viewBox="0 0 22 22" fill="none" xmlns="http://www.w3.org/2000/svg">
<path d="M11.4824 1.48438H20.7132" stroke="#5F5F5F" stroke-linecap="round"/>
<path d="M11.4824 21.4844H20.7132" stroke="#5F5F5F" stroke-linecap="round"/>
<path d="M20.7148 1.48438L20.7148 21.4844" stroke="#5F5F5F" stroke-linecap="round"/>
<path d="M0.714844 11.7539C0.438701 11.7539 0.214844 11.9778 0.214844 12.2539C0.214844 12.53 0.438701 12.7539 0.714844 12.7539L0.714844 11.7539ZM14.9146 12.6075C15.1098 12.4122 15.1098 12.0956 14.9146 11.9004L11.7326 8.71837C11.5373 8.52311 11.2207 8.52311 11.0255 8.71837C10.8302 8.91364 10.8302 9.23022 11.0255 9.42548L13.8539 12.2539L11.0255 15.0823C10.8302 15.2776 10.8302 15.5942 11.0255 15.7894C11.2207 15.9847 11.5373 15.9847 11.7326 15.7894L14.9146 12.6075ZM0.714844 12.7539L14.561 12.7539L14.561 11.7539L0.714844 11.7539L0.714844 12.7539Z" fill="#5F5F5F"/>
</svg>
