<svg width="15" height="15" viewBox="0 0 15 15" fill="none" xmlns="http://www.w3.org/2000/svg">
<path d="M7.03125 1.6875V8.25H7.96875V1.6875H7.03125Z" fill="black"/>
<path d="M2.81284 9.01115C2.81271 8.17395 3.0368 7.35199 3.46183 6.63071C3.88685 5.90942 4.49729 5.31512 5.22971 4.90958L4.77503 4.09021C3.68802 4.69215 2.83091 5.63706 2.3375 6.77744C1.8441 7.91782 1.74216 9.18948 2.04762 10.3939C2.35307 11.5983 3.04872 12.6677 4.02596 13.4351C5.00321 14.2025 6.20704 14.6247 7.44953 14.6359C8.69203 14.647 9.90325 14.2465 10.8941 13.4967C11.885 12.747 12.5997 11.6902 12.9267 10.4915C13.2537 9.29276 13.1746 8.01948 12.7018 6.87043C12.2289 5.72139 11.3889 4.76124 10.3128 4.1399L9.84315 4.95083C10.5559 5.3621 11.1478 5.95374 11.5593 6.66627C11.9709 7.3788 12.1877 8.18713 12.1878 9.00999C12.188 9.83285 11.9715 10.6413 11.5602 11.3539C11.1489 12.0666 10.5572 12.6585 9.84468 13.07C9.13212 13.4816 8.32378 13.6983 7.50092 13.6984C6.67806 13.6985 5.86966 13.482 5.157 13.0706C4.44434 12.6592 3.85252 12.0675 3.44103 11.3549C3.02954 10.6424 2.81289 9.83401 2.81284 9.01115Z" fill="black"/>
</svg>