<svg width="15" height="15" viewBox="0 0 15 15" fill="none" xmlns="http://www.w3.org/2000/svg">
<g clip-path="url(#clip0_8777_20507)">
<path d="M11.75 4.25H12.5C12.8978 4.25 13.2794 4.40804 13.5607 4.68934C13.842 4.97064 14 5.35218 14 5.75V12.5C14 12.8978 13.842 13.2794 13.5607 13.5607C13.2794 13.842 12.8978 14 12.5 14H5.75C5.35218 14 4.97064 13.842 4.68934 13.5607C4.40804 13.2794 4.25 12.8978 4.25 12.5V11.75" stroke="#5F5F5F" stroke-linecap="round" stroke-linejoin="round"/>
<path d="M2.5 10.75H9.25C10.0784 10.75 10.75 10.0784 10.75 9.25V2.5C10.75 1.67157 10.0784 1 9.25 1H2.5C1.67157 1 1 1.67157 1 2.5V9.25C1 10.0784 1.67157 10.75 2.5 10.75Z" stroke="#5F5F5F" stroke-linecap="round" stroke-linejoin="round"/>
</g>
<defs>
<clipPath id="clip0_8777_20507">
<rect width="15" height="15" fill="white"/>
</clipPath>
</defs>
</svg>