<svg width="19" height="23" viewBox="0 0 19 23" fill="none" xmlns="http://www.w3.org/2000/svg">
<line x1="16.1412" y1="0.551834" x2="2.31843" y2="21.9245" stroke="#5F5F5F" stroke-width="1.5"/>
<path d="M11.561 13.2051C11.561 13.3543 11.5017 13.4973 11.3962 13.6028C11.2907 13.7083 11.1476 13.7676 10.9985 13.7676H7.99846C7.89655 13.7677 7.79653 13.7402 7.70906 13.6879C7.62159 13.6356 7.54996 13.5606 7.50183 13.4708C7.45369 13.381 7.43086 13.2798 7.43577 13.178C7.44068 13.0762 7.47315 12.9777 7.52971 12.8929L9.94752 9.26758H7.99846C7.84927 9.26758 7.7062 9.20831 7.60071 9.10283C7.49522 8.99734 7.43596 8.85426 7.43596 8.70508C7.43596 8.55589 7.49522 8.41282 7.60071 8.30733C7.7062 8.20184 7.84927 8.14258 7.99846 8.14258H10.9985C11.1004 8.14243 11.2004 8.16996 11.2879 8.22223C11.3753 8.27451 11.4469 8.34956 11.4951 8.43938C11.5432 8.5292 11.566 8.6304 11.5611 8.73218C11.5562 8.83396 11.5238 8.9325 11.4672 9.01727L9.04939 12.6426H10.9985C11.1476 12.6426 11.2907 12.7018 11.3962 12.8073C11.5017 12.9128 11.561 13.0559 11.561 13.2051ZM18.1338 17.6113C18.02 17.8116 17.855 17.978 17.6556 18.0933C17.4562 18.2087 17.2297 18.2688 16.9994 18.2676H13.016C12.8793 19.1014 12.4508 19.8596 11.8068 20.4067C11.1628 20.9537 10.3453 21.2541 9.50033 21.2541C8.65535 21.2541 7.83787 20.9537 7.19389 20.4067C6.5499 19.8596 6.12133 19.1014 5.9847 18.2676H1.99846C1.76775 18.2671 1.54124 18.2058 1.34177 18.0899C1.14229 17.974 0.976899 17.8075 0.862251 17.6073C0.747603 17.4071 0.687753 17.1802 0.688733 16.9495C0.689712 16.7188 0.751486 16.4924 0.86783 16.2932C1.39752 15.3801 2.18596 12.8057 2.18596 9.45508C2.18596 7.51568 2.95638 5.65572 4.32774 4.28436C5.6991 2.913 7.55906 2.14258 9.49846 2.14258C11.4378 2.14258 13.2978 2.913 14.6692 4.28436C16.0405 5.65572 16.811 7.51568 16.811 9.45508C16.811 12.8048 17.6003 15.3801 18.131 16.2932C18.2486 16.4928 18.3108 16.7202 18.3113 16.9519C18.3118 17.1836 18.2505 17.4112 18.1338 17.6113ZM11.8694 18.2676H7.12752C7.25473 18.8007 7.5579 19.2754 7.98809 19.615C8.41827 19.9546 8.95037 20.1393 9.49846 20.1393C10.0465 20.1393 10.5786 19.9546 11.0088 19.615C11.439 19.2754 11.7422 18.8007 11.8694 18.2676ZM17.1578 16.8613C16.4481 15.6426 15.686 12.8001 15.686 9.45508C15.686 7.81405 15.0341 6.24024 13.8737 5.07985C12.7133 3.91947 11.1395 3.26758 9.49846 3.26758C7.85743 3.26758 6.28361 3.91947 5.12323 5.07985C3.96285 6.24024 3.31096 7.81405 3.31096 9.45508C3.31096 12.801 2.54783 15.6426 1.83814 16.8613C1.82169 16.8898 1.81302 16.9222 1.81302 16.9551C1.81302 16.988 1.82169 17.0203 1.83814 17.0488C1.85358 17.0775 1.87661 17.1015 1.90471 17.118C1.93282 17.1345 1.96492 17.143 1.99752 17.1426H16.9985C17.0311 17.143 17.0632 17.1345 17.0913 17.118C17.1194 17.1015 17.1424 17.0775 17.1578 17.0488C17.1743 17.0203 17.183 16.988 17.183 16.9551C17.183 16.9222 17.1743 16.8898 17.1578 16.8613Z" fill="#5F5F5F"/>
</svg>
