<svg width="21" height="20" viewBox="0 0 21 20" fill="none" xmlns="http://www.w3.org/2000/svg">
<path d="M13.6559 7.24609C13.3972 7.24609 13.1875 7.45577 13.1875 7.71448V16.5669C13.1875 16.8254 13.3972 17.0353 13.6559 17.0353C13.9146 17.0353 14.1243 16.8254 14.1243 16.5669V7.71448C14.1243 7.45577 13.9146 7.24609 13.6559 7.24609Z" fill="#5F5F5F"/>
<path d="M8.13245 7.24609C7.87374 7.24609 7.66406 7.45577 7.66406 7.71448V16.5669C7.66406 16.8254 7.87374 17.0353 8.13245 17.0353C8.39115 17.0353 8.60083 16.8254 8.60083 16.5669V7.71448C8.60083 7.45577 8.39115 7.24609 8.13245 7.24609Z" fill="#5F5F5F"/>
<path d="M4.10372 5.95419V17.4942C4.10372 18.1762 4.35383 18.8168 4.79074 19.2764C5.22564 19.7373 5.83088 19.9989 6.4643 20H15.3262C15.9598 19.9989 16.5651 19.7373 16.9998 19.2764C17.4367 18.8168 17.6868 18.1762 17.6868 17.4942V5.95419C18.5553 5.72366 19.1181 4.8846 19.0019 3.99339C18.8856 3.10236 18.1265 2.43583 17.2278 2.43565H14.8297V1.85017C14.8324 1.35782 14.6378 0.885049 14.2892 0.537238C13.9407 0.18961 13.4672 -0.00396362 12.9748 6.15416e-05H8.81572C8.32337 -0.00396362 7.84987 0.18961 7.50132 0.537238C7.15278 0.885049 6.95811 1.35782 6.96085 1.85017V2.43565H4.56277C3.66406 2.43583 2.90495 3.10236 2.78859 3.99339C2.67241 4.8846 3.2352 5.72366 4.10372 5.95419ZM15.3262 19.0632H6.4643C5.66347 19.0632 5.04049 18.3753 5.04049 17.4942V5.99536H16.7501V17.4942C16.7501 18.3753 16.1271 19.0632 15.3262 19.0632ZM7.89762 1.85017C7.89451 1.60628 7.99038 1.37154 8.16346 1.19938C8.33636 1.02721 8.57165 0.932619 8.81572 0.936827H12.9748C13.2189 0.932619 13.4542 1.02721 13.6271 1.19938C13.8002 1.37136 13.896 1.60628 13.8929 1.85017V2.43565H7.89762V1.85017ZM4.56277 3.37242H17.2278C17.6934 3.37242 18.0709 3.74987 18.0709 4.21551C18.0709 4.68114 17.6934 5.05859 17.2278 5.05859H4.56277C4.09713 5.05859 3.71968 4.68114 3.71968 4.21551C3.71968 3.74987 4.09713 3.37242 4.56277 3.37242Z" fill="#5F5F5F"/>
<path d="M10.8981 7.24609C10.6394 7.24609 10.4297 7.45577 10.4297 7.71448V16.5669C10.4297 16.8254 10.6394 17.0353 10.8981 17.0353C11.1568 17.0353 11.3665 16.8254 11.3665 16.5669V7.71448C11.3665 7.45577 11.1568 7.24609 10.8981 7.24609Z" fill="#5F5F5F"/>
</svg>
