<svg width="24" height="24" viewBox="0 0 24 24" fill="none" xmlns="http://www.w3.org/2000/svg">
<path d="M21.0837 6.53869C21.0496 6.45436 20.9955 6.37956 20.9261 6.3207C20.8568 6.26185 20.7742 6.22071 20.6854 6.2008C20.5966 6.18089 20.5043 6.1828 20.4165 6.20639C20.3286 6.22997 20.2478 6.27451 20.1809 6.33619L16.3306 9.88931L14.5015 9.4965L14.1087 7.66744L17.6618 3.81713C17.7235 3.75025 17.7681 3.66942 17.7916 3.58155C17.8152 3.49369 17.8171 3.40141 17.7972 3.31264C17.7773 3.22387 17.7362 3.14126 17.6773 3.07188C17.6185 3.0025 17.5437 2.94844 17.4593 2.91431C16.2383 2.41934 14.8966 2.30335 13.6087 2.58145C12.3209 2.85954 11.1466 3.51884 10.2386 4.47354C9.33063 5.42825 8.73104 6.63415 8.51788 7.93432C8.30471 9.23449 8.48783 10.5687 9.0434 11.7634L3.28809 16.7321C3.27778 16.7406 3.2684 16.7499 3.25809 16.7603C2.99678 17.0214 2.78947 17.3315 2.648 17.6728C2.50654 18.0141 2.43368 18.38 2.43359 18.7494C2.43342 19.4956 2.72966 20.2113 3.25715 20.739C3.78464 21.2667 4.50017 21.5633 5.24633 21.5635C5.99249 21.5637 6.70816 21.2674 7.2359 20.7399C7.24621 20.7296 7.25559 20.7203 7.26403 20.7099L12.2328 14.9546C13.4274 15.5102 14.7617 15.6933 16.0618 15.4802C17.362 15.267 18.5679 14.6674 19.5226 13.7594C20.4773 12.8514 21.1366 11.6771 21.4147 10.3893C21.6928 9.10144 21.5768 7.75971 21.0818 6.53869H21.0837ZM14.9984 14.4371C14.0803 14.4367 13.1772 14.2039 12.3734 13.7603C12.2604 13.6977 12.1292 13.6759 12.002 13.6986C11.8749 13.7213 11.7594 13.7871 11.675 13.8849L6.42684 19.9571C6.10818 20.2624 5.68262 20.4307 5.24136 20.426C4.80009 20.4213 4.37823 20.2439 4.06619 19.9318C3.75415 19.6198 3.57676 19.1979 3.57203 18.7567C3.56731 18.3154 3.73562 17.8898 4.0409 17.5712L10.1122 12.3268C10.2107 12.2421 10.2769 12.1258 10.2995 11.9978C10.3221 11.8698 10.2996 11.7379 10.2359 11.6246C9.7268 10.7037 9.49584 9.65489 9.57103 8.60532C9.64622 7.55575 10.0243 6.55055 10.6595 5.71162C11.2947 4.8727 12.1596 4.23609 13.1494 3.87901C14.1393 3.52194 15.2114 3.45973 16.2359 3.69994L13.084 7.11806C13.023 7.18437 12.9788 7.26438 12.9551 7.35133C12.9315 7.43829 12.9291 7.52966 12.9481 7.61775L13.4778 10.0881C13.5005 10.1941 13.5534 10.2913 13.63 10.368C13.7067 10.4447 13.8039 10.4975 13.91 10.5203L16.3803 11.0499C16.4684 11.069 16.5597 11.0665 16.6467 11.0429C16.7337 11.0192 16.8137 10.975 16.88 10.914L20.2943 7.76213C20.4797 8.55989 20.4826 9.38919 20.3029 10.1882C20.1232 10.9873 19.7656 11.7355 19.2565 12.3771C18.7475 13.0187 18.1002 13.5372 17.3629 13.8938C16.6257 14.2505 15.8174 14.4362 14.9984 14.4371Z" fill="white"/>
</svg>
