<svg width="25" height="25" viewBox="0 0 25 25" fill="none" xmlns="http://www.w3.org/2000/svg">
<path d="M4.03125 15.6875C3.40965 15.6875 2.81351 15.4406 2.37397 15.001C1.93443 14.5615 1.6875 13.9654 1.6875 13.3438C1.6875 12.7221 1.93443 12.126 2.37397 11.6865C2.81351 11.2469 3.40965 11 4.03125 11C4.65285 11 5.24899 11.2469 5.68853 11.6865C6.12807 12.126 6.375 12.7221 6.375 13.3438C6.375 13.9654 6.12807 14.5615 5.68853 15.001C5.24899 15.4406 4.65285 15.6875 4.03125 15.6875ZM11.8438 15.6875C11.2221 15.6875 10.626 15.4406 10.1865 15.001C9.74693 14.5615 9.5 13.9654 9.5 13.3438C9.5 12.7221 9.74693 12.126 10.1865 11.6865C10.626 11.2469 11.2221 11 11.8438 11C12.4654 11 13.0615 11.2469 13.501 11.6865C13.9406 12.126 14.1875 12.7221 14.1875 13.3438C14.1875 13.9654 13.9406 14.5615 13.501 15.001C13.0615 15.4406 12.4654 15.6875 11.8438 15.6875ZM19.6562 15.6875C19.0346 15.6875 18.4385 15.4406 17.999 15.001C17.5594 14.5615 17.3125 13.9654 17.3125 13.3438C17.3125 12.7221 17.5594 12.126 17.999 11.6865C18.4385 11.2469 19.0346 11 19.6562 11C20.2779 11 20.874 11.2469 21.3135 11.6865C21.7531 12.126 22 12.7221 22 13.3438C22 13.9654 21.7531 14.5615 21.3135 15.001C20.874 15.4406 20.2779 15.6875 19.6562 15.6875Z" fill="#5F5F5F"/>
</svg>