<svg width="18" height="18" viewBox="0 0 18 18" fill="none" xmlns="http://www.w3.org/2000/svg">
<path d="M17.8125 1.49979V5.99979C17.8125 6.14898 17.7532 6.29205 17.6477 6.39754C17.5423 6.50303 17.3992 6.56229 17.25 6.56229H12.75C12.6008 6.56229 12.4577 6.50303 12.3523 6.39754C12.2468 6.29205 12.1875 6.14898 12.1875 5.99979C12.1875 5.85061 12.2468 5.70754 12.3523 5.60205C12.4577 5.49656 12.6008 5.43729 12.75 5.43729H15.8925L14.2003 3.74979C12.7716 2.31482 10.8318 1.50557 8.80688 1.49979H8.76375C6.75624 1.49346 4.82689 2.27746 3.39281 3.68229C3.34062 3.73677 3.27801 3.7802 3.20869 3.80998C3.13938 3.83977 3.06478 3.8553 2.98934 3.85567C2.9139 3.85603 2.83915 3.84122 2.76955 3.8121C2.69995 3.78299 2.63692 3.74018 2.58421 3.6862C2.5315 3.63223 2.49018 3.56821 2.46271 3.49794C2.43525 3.42768 2.4222 3.3526 2.42435 3.27719C2.42649 3.20178 2.44378 3.12757 2.47519 3.05897C2.5066 2.99038 2.55149 2.92881 2.60719 2.87792C4.24966 1.26467 6.46152 0.363356 8.76375 0.369169H8.8125C11.1356 0.37509 13.3613 1.30346 15 2.95011L16.6875 4.63761V1.49979C16.6875 1.35061 16.7468 1.20754 16.8523 1.10205C16.9577 0.996557 17.1008 0.937294 17.25 0.937294C17.3992 0.937294 17.5423 0.996557 17.6477 1.10205C17.7532 1.20754 17.8125 1.35061 17.8125 1.49979ZM14.6072 14.3173C13.174 15.7242 11.2446 16.5103 9.23625 16.5054H9.19312C7.16821 16.4996 5.22838 15.6904 3.79969 14.2554L2.1075 12.5623H5.25C5.39918 12.5623 5.54226 12.503 5.64775 12.3975C5.75324 12.2921 5.8125 12.149 5.8125 11.9998C5.8125 11.8506 5.75324 11.7075 5.64775 11.602C5.54226 11.4966 5.39918 11.4373 5.25 11.4373H0.75C0.600816 11.4373 0.457742 11.4966 0.352252 11.602C0.246763 11.7075 0.1875 11.8506 0.1875 11.9998V16.4998C0.1875 16.649 0.246763 16.7921 0.352252 16.8975C0.457742 17.003 0.600816 17.0623 0.75 17.0623C0.899184 17.0623 1.04226 17.003 1.14775 16.8975C1.25324 16.7921 1.3125 16.649 1.3125 16.4998V13.3573L3 15.0495C4.63873 16.6961 6.86438 17.6245 9.1875 17.6304H9.23625C11.5385 17.6362 13.7503 16.7349 15.3928 15.1217C15.4485 15.0708 15.4934 15.0092 15.5248 14.9406C15.5562 14.872 15.5735 14.7978 15.5757 14.7224C15.5778 14.647 15.5647 14.5719 15.5373 14.5016C15.5098 14.4314 15.4685 14.3674 15.4158 14.3134C15.3631 14.2594 15.3 14.2166 15.2304 14.1875C15.1608 14.1584 15.0861 14.1436 15.0107 14.1439C14.9352 14.1443 14.8606 14.1598 14.7913 14.1896C14.722 14.2194 14.6594 14.2628 14.6072 14.3173Z" fill="white"/>
</svg>
