<svg width="23" height="22" viewBox="0 0 23 22" fill="none" xmlns="http://www.w3.org/2000/svg">
<path d="M21.5234 16.5V19.25C21.5234 20.0083 20.9067 20.625 20.1484 20.625H3.64844C2.89012 20.625 2.27344 20.0083 2.27344 19.25V16.5C2.27344 16.1205 2.58144 15.8125 2.96094 15.8125C3.34044 15.8125 3.64844 16.1205 3.64844 16.5V19.25H20.1484V16.5C20.1484 16.1205 20.4564 15.8125 20.8359 15.8125C21.2154 15.8125 21.5234 16.1205 21.5234 16.5Z" fill="#5F5F5F" fill-opacity="0.8"/>
<path d="M6.60005 11.4861C6.33123 11.2173 6.33123 10.7828 6.60005 10.5139C6.86886 10.2451 7.30336 10.2451 7.57217 10.5139L11.2111 14.1529V2.0625C11.2111 1.683 11.5191 1.375 11.8986 1.375C12.2781 1.375 12.5861 1.683 12.5861 2.0625V14.1529L16.225 10.5139C16.4939 10.2451 16.9284 10.2451 17.1972 10.5139C17.466 10.7828 17.466 11.2173 17.1972 11.4861L12.3847 16.2986C12.1124 16.5715 11.6759 16.5626 11.4119 16.2986L6.60005 11.4861Z" fill="#5F5F5F" fill-opacity="0.8"/>
</svg>
