<svg width="25" height="25" viewBox="0 0 25 25" fill="none" xmlns="http://www.w3.org/2000/svg">
<path d="M14.5636 14.3145C14.5636 14.4636 14.5044 14.6067 14.3989 14.7122C14.2934 14.8177 14.1503 14.877 14.0011 14.877H11.0011C10.8992 14.8771 10.7992 14.8496 10.7117 14.7973C10.6243 14.745 10.5526 14.67 10.5045 14.5802C10.4564 14.4903 10.4335 14.3891 10.4385 14.2874C10.4434 14.1856 10.4758 14.087 10.5324 14.0023L12.9502 10.377H11.0011C10.852 10.377 10.7089 10.3177 10.6034 10.2122C10.4979 10.1067 10.4386 9.96364 10.4386 9.81445C10.4386 9.66527 10.4979 9.52219 10.6034 9.41671C10.7089 9.31122 10.852 9.25195 11.0011 9.25195H14.0011C14.103 9.2518 14.2031 9.27933 14.2905 9.33161C14.378 9.38388 14.4496 9.45894 14.4978 9.54875C14.5459 9.63857 14.5687 9.73977 14.5638 9.84156C14.5589 9.94334 14.5264 10.0419 14.4699 10.1266L12.0521 13.752H14.0011C14.1503 13.752 14.2934 13.8112 14.3989 13.9167C14.5044 14.0222 14.5636 14.1653 14.5636 14.3145ZM21.1365 18.7207C21.0227 18.921 20.8577 19.0874 20.6583 19.2027C20.4589 19.318 20.2324 19.3782 20.0021 19.377H16.0186C15.882 20.2108 15.4534 20.969 14.8095 21.516C14.1655 22.0631 13.348 22.3634 12.503 22.3634C11.658 22.3634 10.8406 22.0631 10.1966 21.516C9.55258 20.969 9.12401 20.2108 8.98739 19.377H5.00114C4.77043 19.3765 4.54393 19.3152 4.34445 19.1993C4.14498 19.0833 3.97958 18.9169 3.86494 18.7167C3.75029 18.5165 3.69044 18.2896 3.69142 18.0589C3.6924 17.8282 3.75417 17.6018 3.87052 17.4026C4.4002 16.4895 5.18864 13.9151 5.18864 10.5645C5.18864 8.62506 5.95906 6.76509 7.33042 5.39373C8.70178 4.02238 10.5617 3.25195 12.5011 3.25195C14.4405 3.25195 16.3005 4.02238 17.6719 5.39373C19.0432 6.76509 19.8136 8.62506 19.8136 10.5645C19.8136 13.9141 20.603 16.4895 21.1336 17.4026C21.2512 17.6022 21.3135 17.8296 21.314 18.0613C21.3145 18.2929 21.2532 18.5206 21.1365 18.7207ZM14.8721 19.377H10.1302C10.2574 19.9101 10.5606 20.3848 10.9908 20.7244C11.421 21.064 11.9531 21.2487 12.5011 21.2487C13.0492 21.2487 13.5813 21.064 14.0115 20.7244C14.4417 20.3848 14.7449 19.9101 14.8721 19.377ZM20.1605 17.9707C19.4508 16.752 18.6886 13.9095 18.6886 10.5645C18.6886 8.92343 18.0367 7.34961 16.8764 6.18923C15.716 5.02885 14.1422 4.37695 12.5011 4.37695C10.8601 4.37695 9.2863 5.02885 8.12592 6.18923C6.96554 7.34961 6.31364 8.92343 6.31364 10.5645C6.31364 13.9104 5.55052 16.752 4.84083 17.9707C4.82437 17.9992 4.81571 18.0315 4.81571 18.0645C4.81571 18.0974 4.82437 18.1297 4.84083 18.1582C4.85627 18.1869 4.8793 18.2108 4.9074 18.2274C4.9355 18.2439 4.9676 18.2524 5.0002 18.252H20.0011C20.0337 18.2524 20.0658 18.2439 20.0939 18.2274C20.122 18.2108 20.1451 18.1869 20.1605 18.1582C20.177 18.1297 20.1856 18.0974 20.1856 18.0645C20.1856 18.0315 20.177 17.9992 20.1605 17.9707Z" fill="#5F5F5F"/>
</svg>
