<svg width="20" height="12" viewBox="0 0 20 12" fill="none" xmlns="http://www.w3.org/2000/svg">
<path d="M6.66667 10.8333C6.66667 10.6123 6.75446 10.4004 6.91074 10.2441C7.06702 10.0878 7.27899 10 7.5 10H12.5C12.721 10 12.933 10.0878 13.0893 10.2441C13.2455 10.4004 13.3333 10.6123 13.3333 10.8333C13.3333 11.0543 13.2455 11.2663 13.0893 11.4226C12.933 11.5789 12.721 11.6667 12.5 11.6667H7.5C7.27899 11.6667 7.06702 11.5789 6.91074 11.4226C6.75446 11.2663 6.66667 11.0543 6.66667 10.8333ZM3.33333 5.83333C3.33333 5.61232 3.42113 5.40036 3.57741 5.24408C3.73369 5.0878 3.94565 5 4.16667 5H15.8333C16.0543 5 16.2663 5.0878 16.4226 5.24408C16.5789 5.40036 16.6667 5.61232 16.6667 5.83333C16.6667 6.05435 16.5789 6.26631 16.4226 6.42259C16.2663 6.57887 16.0543 6.66667 15.8333 6.66667H4.16667C3.94565 6.66667 3.73369 6.57887 3.57741 6.42259C3.42113 6.26631 3.33333 6.05435 3.33333 5.83333ZM0 0.833333C0 0.61232 0.0877975 0.400358 0.244078 0.244078C0.400358 0.0877975 0.61232 0 0.833333 0H19.1667C19.3877 0 19.5996 0.0877975 19.7559 0.244078C19.9122 0.400358 20 0.61232 20 0.833333C20 1.05435 19.9122 1.26631 19.7559 1.42259C19.5996 1.57887 19.3877 1.66667 19.1667 1.66667H0.833333C0.61232 1.66667 0.400358 1.57887 0.244078 1.42259C0.0877975 1.26631 0 1.05435 0 0.833333Z" fill="#5F5F5F"/>
</svg>