<svg width="103" height="39" viewBox="0 0 103 39" fill="none" xmlns="http://www.w3.org/2000/svg">
<path d="M17.7233 36.9173C22.6453 35.7745 26.7106 34.8289 26.7573 34.8159L26.8422 34.7922L22.1953 27.5277C19.6396 23.5323 17.5485 20.2477 17.5485 20.2288C17.5485 20.193 22.3468 2.82668 22.3737 2.76485C22.3828 2.74424 25.6481 10.1537 30.2892 20.7258C34.6343 30.6237 38.2165 38.7845 38.2498 38.861L38.3104 39L23.5423 38.9975L8.77425 38.995L17.7233 36.9173ZM74.3571 35.1604C72.1091 34.971 70.8017 33.2886 70.4552 30.1396C70.3631 29.3019 70.3627 29.2801 70.3533 23.8419L70.3442 18.5785H71.3391H72.334L72.3418 23.6695C72.3489 28.2579 72.3533 28.7959 72.3867 29.1187C72.5221 30.4286 72.7918 31.3096 73.2509 31.9419C73.6184 32.4479 74.0485 32.7442 74.644 32.9015C74.9249 32.9757 75.724 32.9758 75.9802 32.9018C76.5838 32.7272 77.0677 32.3819 77.4945 31.8212C77.981 31.182 78.3409 30.2752 78.515 29.2498L78.5737 28.9042L78.5802 23.7701L78.5867 18.636H79.6025H80.6182V26.707V34.7779H79.6129H78.6077V33.4974C78.6077 32.6273 78.6004 32.22 78.585 32.2268C78.5726 32.2322 78.521 32.336 78.4703 32.4574C78.1239 33.2878 77.5467 34.0471 76.9143 34.5046C76.1562 35.053 75.3959 35.2479 74.3571 35.1604ZM97.1744 35.1473C96.3809 35.0689 95.5453 34.7104 94.8624 34.1552C93.423 32.9849 92.5713 31.056 92.3219 28.4015C92.2356 27.4829 92.2253 26.2491 92.2973 25.4685C92.4582 23.7245 92.9796 22.0124 93.7221 20.7901C93.9125 20.4768 94.3443 19.9092 94.5827 19.6591C95.2265 18.9835 95.9795 18.5111 96.779 18.2813C97.2448 18.1473 98.0652 18.0844 98.5601 18.1447C99.8033 18.2962 100.943 19.0655 101.717 20.2764C102.504 21.5067 102.937 23.2258 102.992 25.3426C103.001 25.6743 103.003 26.256 102.997 26.6351L102.985 27.3244L98.6311 27.3317L94.2768 27.3389V27.5943C94.2768 28.3718 94.4206 29.2572 94.6692 30.0106C94.8836 30.6603 95.2526 31.3698 95.5548 31.7131C96.1744 32.417 96.9327 32.8384 97.7624 32.9398C98.0701 32.9774 98.8542 32.9378 99.2048 32.867C100.205 32.6649 101.156 32.1493 101.924 31.3925C102.014 31.3035 102.101 31.2203 102.116 31.2077C102.139 31.1892 102.144 31.4218 102.143 32.3996L102.143 33.6146L101.937 33.7818C101.068 34.4881 100.073 34.9415 99.019 35.1113C98.7045 35.1619 97.5505 35.1845 97.1744 35.1473ZM100.964 24.9004C100.964 23.5982 100.546 22.1515 99.9555 21.4066C99.5338 20.875 99.0241 20.5501 98.418 20.4267C98.1313 20.3683 97.527 20.3908 97.2248 20.4711C96.5857 20.6408 96.0572 21.01 95.5962 21.6087C95.111 22.2388 94.7473 23.0041 94.5185 23.8761C94.4362 24.1896 94.34 24.7044 94.3102 24.9907L94.2959 25.1272H97.63H100.964V24.9004ZM41.8981 34.7419C41.9032 34.7222 43.3818 29.6169 45.1839 23.3968L48.4605 12.0873H49.5133H50.5661L50.6534 12.3817C50.9204 13.2814 57.2129 34.7533 57.2129 34.7645C57.2129 34.7718 56.7089 34.7776 56.0929 34.7776L54.9729 34.7773L54.066 31.6038L53.1591 28.4303L49.5074 28.4302L45.8556 28.4302L45.8239 28.5379C45.8065 28.5971 45.419 30.0251 44.9628 31.7112L44.1335 34.7768L43.0112 34.7773C42.1228 34.7776 41.8908 34.7704 41.8981 34.7419ZM52.4925 26.0084C52.4925 26.0034 51.8822 23.8288 51.1362 21.1759C49.7407 16.2129 49.6626 15.9143 49.5524 15.1175C49.5007 14.7439 49.4745 14.7335 49.4438 15.0744C49.4219 15.3181 49.3268 15.8634 49.2534 16.1659C49.217 16.3159 48.5886 18.5829 47.8569 21.2036C47.1252 23.8242 46.5265 25.9795 46.5265 25.993C46.5265 26.0065 47.8688 26.0176 49.5095 26.0176C51.1502 26.0176 52.4925 26.0135 52.4925 26.0084ZM57.8904 34.3645V33.9512L61.5286 27.3778L65.1668 20.8045L61.8728 20.7901L58.5788 20.7758L58.5731 19.6771L58.5673 18.5785H63.3317H68.0961V18.9496V19.3207L64.4574 25.9299C62.4562 29.5649 60.8188 32.5452 60.8188 32.5526C60.8188 32.5601 62.4365 32.5662 64.4137 32.5662H68.0086V33.672V34.7778H62.9495H57.8904V34.3645ZM84.5883 34.7587C84.5803 34.7482 84.5737 31.1033 84.5737 26.659V18.5785H85.5681H86.5624V20.2444C86.5624 21.1606 86.5709 21.9103 86.5812 21.9103C86.5916 21.9103 86.64 21.7603 86.6888 21.577C86.9124 20.737 87.3 19.9522 87.7995 19.3284C88.2495 18.7664 88.7638 18.4304 89.3706 18.3018C89.5411 18.2656 89.6853 18.2587 90.0262 18.2704C90.4544 18.2851 90.6782 18.3262 90.9386 18.4381L91.0206 18.4733V19.8298V21.1863L90.7856 21.0317C90.3706 20.7587 89.9612 20.6507 89.4689 20.6843C89.1486 20.7062 88.9383 20.7603 88.6822 20.8866C88.1553 21.1465 87.7278 21.6053 87.4292 22.2316C86.9968 23.1381 86.6884 24.3035 86.5975 25.3745C86.5811 25.5668 86.5715 27.1322 86.5677 30.2182L86.562 34.7778H85.5824C85.0437 34.7778 84.5963 34.7692 84.5883 34.7587ZM0 34.7019C0 34.6917 2.18957 29.6962 4.86572 23.6007L9.73143 12.5181L15.4019 6.26387C18.5206 2.82403 21.0807 0.00541553 21.091 0.000133752C21.1012 -0.00486441 21.0602 0.130847 20.9998 0.301858C20.9394 0.472869 18.1686 8.28377 14.8425 17.6594L8.79504 34.706L4.39752 34.7133C1.97888 34.7173 0 34.7122 0 34.7019Z" fill="#0089D6"/>
</svg>
