<svg width="153" height="22" viewBox="0 0 153 22" fill="none" xmlns="http://www.w3.org/2000/svg">
<path d="M66.0512 14.0396H76.1611L70.8154 4.7083L61.004 21.5797H56.5389L68.4726 1.31341C68.9913 0.494758 69.8562 0 70.8154 0C71.743 0 72.6078 0.477574 73.111 1.27937L85.0919 21.5797H80.6268L78.5201 17.8097H68.2843L66.0512 14.0396ZM112.434 17.8093V0.204582H108.645V19.5326C108.645 20.0614 108.834 20.5733 109.195 20.9656C109.557 21.3579 110.044 21.5797 110.579 21.5797H127.859L130.092 17.8097L112.434 17.8093ZM49.7462 14.6534C53.4257 14.6534 56.4131 11.4294 56.4131 7.43758C56.4131 3.44547 53.4257 0.204258 49.7462 0.204258H33.1693V21.58H36.9573V3.97492H49.4949C51.2559 3.97492 52.6708 5.52761 52.6708 7.43823C52.6708 9.34852 51.2559 10.9009 49.4949 10.9009L38.8127 10.884L50.1236 21.58H55.6269L48.0169 14.654L49.7462 14.6534ZM9.85236 21.5797C4.41369 21.58 0 16.8033 0 10.9009C0 4.99816 4.41369 0.204906 9.85236 0.204906H21.3035C26.7433 0.204906 31.1537 4.99816 31.1537 10.9009C31.1537 16.8033 26.7433 21.5797 21.3032 21.5797H9.85236ZM21.0489 17.8097C24.5723 17.8097 27.4261 14.7218 27.4261 10.9006C27.4261 7.07964 24.5723 3.97492 21.0489 3.97492H10.1058C6.58348 3.97492 3.72818 7.07964 3.72818 10.9009C3.72818 14.7218 6.58348 17.8097 10.1055 17.8097H21.0489ZM93.0007 21.5797C87.5608 21.5797 83.1423 16.8033 83.1423 10.9009C83.1423 4.99816 87.5608 0.204906 93.0007 0.204906H106.602L104.384 3.97492H93.2523C89.7303 3.97492 86.8687 7.07964 86.8687 10.9009C86.8687 14.7218 89.7303 17.8097 93.2523 17.8097H106.916L104.683 21.5797H93.0007ZM139.337 17.8097C136.428 17.8097 133.96 15.6945 133.205 12.7771H149.4L151.632 9.00712H133.205C133.96 6.10698 136.428 3.97492 139.337 3.97492H150.453L152.701 0.204258H139.085C133.645 0.204258 129.227 4.99783 129.227 10.9002C129.227 16.803 133.645 21.5793 139.085 21.5793H150.767L153 17.8097H139.337Z" fill="#EA1B22"/>
</svg>
