<svg width="81" height="51" viewBox="0 0 81 51" fill="none" xmlns="http://www.w3.org/2000/svg">
<g clip-path="url(#clip0_4785_57687)">
<path d="M23.0064 18.4319C23.0064 19.4613 23.1066 20.2974 23.2971 20.914C23.5076 21.5254 23.7783 22.1942 24.1492 22.9206C24.2676 23.1125 24.3318 23.3352 24.3347 23.5633C24.3347 23.8402 24.1743 24.1224 23.8334 24.3994L22.1493 25.5699C21.9471 25.722 21.7067 25.8092 21.4576 25.8207C21.1869 25.8207 20.9212 25.6848 20.6556 25.434C20.2953 25.0299 19.973 24.5907 19.6932 24.1224C19.395 23.5864 19.1191 23.0372 18.8662 22.4764C16.786 25.0421 14.1746 26.3275 11.0268 26.3275C8.78626 26.3275 6.99684 25.6535 5.69363 24.3158C4.3854 22.978 3.71875 21.191 3.71875 18.9597C3.71875 16.5874 4.52073 14.6644 6.14474 13.2118C7.77376 11.7591 9.9341 11.038 12.6809 11.038C13.5831 11.038 14.5204 11.1216 15.5079 11.2575C16.4953 11.3985 17.5128 11.6232 18.5754 11.8741V9.83614C18.5754 7.71463 18.1494 6.23584 17.3223 5.37364C16.4702 4.50623 15.0267 4.08819 12.9716 4.08819C12.0393 4.08819 11.0819 4.20315 10.0945 4.45397C9.11343 4.69738 8.15028 5.01345 7.21238 5.39977C6.90957 5.5427 6.59814 5.66489 6.28007 5.76555C6.14225 5.81302 5.99897 5.84114 5.85402 5.84915C5.47809 5.84915 5.29264 5.56698 5.29264 4.98174V3.61268C5.29264 3.16852 5.34276 2.82887 5.47809 2.64075C5.68008 2.38437 5.93784 2.18194 6.22995 2.05028C7.15724 1.54864 8.28001 1.13061 9.58824 0.796183C10.8915 0.430405 12.2799 0.268418 13.7485 0.268418C16.9214 0.268418 19.2421 1.02088 20.7358 2.5258C22.2044 4.03071 22.9512 6.31944 22.9512 9.39198V18.4319H23.0014H23.0064ZM12.1746 22.6698C13.0518 22.6698 13.959 22.5025 14.9214 22.1681C15.8788 21.8337 16.7359 21.2171 17.4527 20.381C17.8825 19.8677 18.1929 19.2579 18.3599 18.5992C18.5203 17.9251 18.6306 17.1204 18.6306 16.1693V14.9988C17.821 14.7942 17.001 14.6372 16.1745 14.5286C15.3434 14.4165 14.5064 14.3589 13.6683 14.3561C11.8789 14.3561 10.5707 14.7219 9.6935 15.4744C8.81132 16.2268 8.39028 17.2876 8.39028 18.6828C8.39028 19.9891 8.70606 20.9663 9.37271 21.6403C10.0143 22.3353 10.9466 22.6698 12.1746 22.6698ZM33.5925 25.6848C33.1113 25.6848 32.7905 25.6012 32.58 25.4026C32.3645 25.2354 32.179 24.8487 32.0186 24.3158L25.7532 2.75049C25.6296 2.38905 25.5471 2.01373 25.5075 1.63225C25.5075 1.18809 25.7231 0.937272 26.1491 0.937272H28.7656C29.2668 0.937272 29.6177 1.02088 29.8032 1.21422C30.0187 1.38143 30.1791 1.77334 30.3395 2.3011L34.8205 20.7729L38.9808 2.3011C39.1111 1.74721 39.2715 1.38143 39.4821 1.21422C39.8037 1.00885 40.1783 0.912117 40.5547 0.937272H42.685C43.1962 0.937272 43.5371 1.02088 43.7526 1.21422C43.9681 1.38143 44.1536 1.77334 44.2589 2.3011L48.4743 20.9976L53.0856 2.3011C53.1712 1.89652 53.356 1.52201 53.622 1.21422C53.9325 1.00902 54.2976 0.912034 54.6645 0.937272H57.1457C57.5717 0.937272 57.8123 1.16196 57.8123 1.63225C57.8123 1.77334 57.7822 1.91442 57.7622 2.08164C57.7191 2.31885 57.6553 2.55147 57.5717 2.77661L51.1408 24.3419C50.9804 24.901 50.795 25.2668 50.5845 25.434C50.2818 25.6358 49.9257 25.7328 49.567 25.7109H47.2763C46.7701 25.7109 46.4242 25.6273 46.2087 25.434C45.9931 25.2354 45.8077 24.8749 45.7024 24.3158L41.5672 6.32467L37.4571 24.2949C37.3267 24.854 37.1663 25.2145 36.9558 25.4079C36.7403 25.6064 36.3644 25.69 35.8882 25.69H33.5925V25.6848ZM67.8671 26.4373C66.4829 26.4392 65.1033 26.2708 63.757 25.9356C62.4237 25.6012 61.3861 25.2354 60.6894 24.8174C60.2634 24.5666 59.9726 24.2896 59.8624 24.0336C59.7605 23.7877 59.7076 23.5228 59.707 23.255V21.8337C59.707 21.2484 59.9175 20.9663 60.3185 20.9663C60.4822 20.9666 60.6447 20.9949 60.7997 21.0499C60.9601 21.1074 61.2007 21.2171 61.4663 21.332C62.3686 21.7501 63.361 22.0845 64.3986 22.3092C65.4662 22.5287 66.5038 22.6436 67.5714 22.6436C69.2556 22.6436 70.5588 22.3353 71.466 21.724C71.9019 21.4489 72.26 21.0583 72.5039 20.592C72.7478 20.1257 72.8687 19.6004 72.8545 19.0694C72.8635 18.711 72.8043 18.3542 72.6804 18.0197C72.5566 17.6852 72.3704 17.3795 72.1327 17.1204C71.6565 16.5874 70.7493 16.1119 69.441 15.6677L65.5715 14.4136C63.6267 13.7709 62.1831 12.8199 61.3059 11.5658C60.4473 10.407 59.9787 8.98556 59.9727 7.52129C59.9727 6.3508 60.2132 5.31616 60.6894 4.42262C61.1706 3.5343 61.8122 2.75049 62.6142 2.13389C63.4161 1.49639 64.3184 1.02088 65.386 0.68645C66.4537 0.352024 67.5714 0.210938 68.7443 0.210938C69.3358 0.210938 69.9473 0.237067 70.5337 0.320673C71.1452 0.40428 71.7066 0.519238 72.268 0.634197C72.7993 0.770058 73.3106 0.905919 73.7868 1.07836C74.2679 1.24557 74.6389 1.41278 74.9095 1.58C75.2243 1.74476 75.4986 1.9825 75.7115 2.27497C75.8831 2.54704 75.9657 2.86963 75.9471 3.19465V4.50622C75.9471 5.09147 75.7366 5.39977 75.3356 5.39977C74.9805 5.35751 74.6367 5.24394 74.3231 5.06535C72.7113 4.32033 70.9634 3.94947 69.2004 3.97846C67.6817 3.97846 66.4787 4.22928 65.6517 4.76227C64.8246 5.28481 64.3986 6.09998 64.3986 7.24434C64.3986 8.02293 64.6642 8.69178 65.2006 9.22477C65.7319 9.75254 66.7193 10.2803 68.1328 10.7558L71.9222 12.0099C73.8419 12.6526 75.2303 13.5462 76.0574 14.6906C76.8844 15.8349 77.2804 17.1465 77.2804 18.5992C77.2804 19.801 77.0448 20.8827 76.5887 21.8337C76.1164 22.788 75.4532 23.6255 74.6439 24.2896C73.8168 24.9846 72.8294 25.4915 71.6816 25.852C70.4786 26.2439 69.2255 26.4373 67.8671 26.4373Z" fill="#252F3E"/>
<path fill-rule="evenodd" clip-rule="evenodd" d="M72.906 39.989C64.1344 46.7663 51.3829 50.3666 40.4208 50.3666C25.0579 50.3666 11.2137 44.4254 0.757873 34.5493C-0.0691691 33.7655 0.677675 32.7048 1.6601 33.3214C12.973 40.1823 26.9225 44.3418 41.3581 44.3418C51.0871 44.3418 61.7836 42.2202 71.6279 37.8675C73.0965 37.1725 74.3496 38.8707 72.906 39.989Z" fill="#FF9900"/>
<path fill-rule="evenodd" clip-rule="evenodd" d="M76.5595 35.6368C75.4417 34.1371 69.1462 34.9157 66.2942 35.2763C65.4421 35.3912 65.3067 34.6074 66.0786 34.0222C71.091 30.3383 79.3364 31.399 80.2937 32.627C81.2561 33.8811 80.0281 42.503 75.3315 46.6311C74.6147 47.2738 73.923 46.9446 74.2388 46.1085C75.3064 43.3391 77.6823 37.1208 76.5595 35.6421V35.6368Z" fill="#FF9900"/>
</g>
<defs>
<clipPath id="clip0_4785_57687">
<rect width="81" height="51" fill="white"/>
</clipPath>
</defs>
</svg>
