<svg width="77" height="68" viewBox="0 0 77 68" fill="none" xmlns="http://www.w3.org/2000/svg">
<g clip-path="url(#clip0_4785_57696)">
<path d="M51.2078 21.733L57.9011 15.8221L58.3471 13.3332C46.1502 3.5388 26.7615 4.64938 15.7664 15.6505C12.7123 18.706 10.4465 22.5153 9.23828 26.449L11.6355 26.1507L25.0218 24.2012L26.0553 23.2678C32.0098 17.4926 42.0779 16.7157 48.9531 21.6295L51.2078 21.733Z" fill="#EA4335"/>
<path d="M67.4373 26.2738C65.8988 21.2705 62.7403 16.7727 58.3486 13.332L48.9546 21.628C52.9213 24.4904 55.181 28.8026 55.0842 33.3254V34.798C59.7015 34.798 63.445 38.1037 63.445 42.1813C63.445 46.2592 59.7015 49.482 55.0842 49.482H38.3394L36.6953 51.0582V59.9142L38.3394 61.3036H55.0842C67.0944 61.3862 76.9065 52.938 77 42.3316C77.0565 35.9027 73.4673 29.8757 67.4373 26.2738Z" fill="#4285F4"/>
<path d="M21.6165 61.3057H38.3378V49.4838H21.6165C20.4251 49.4836 19.2713 49.2575 18.1879 48.8203L15.8156 49.4631L9.07541 55.3741L8.48828 57.3859C12.2682 59.9064 16.8801 61.3238 21.6165 61.3057Z" fill="#34A853"/>
<path d="M21.6172 22.9572C9.60674 23.0204 -0.0711914 31.6702 0.000394583 42.2766C0.0403985 48.1995 3.17273 53.775 8.48904 57.3856L18.1886 48.82C13.9804 47.141 12.1104 42.7675 14.0117 39.0514C15.9126 35.3353 20.8653 33.6839 25.0729 35.3626C26.9272 36.1024 28.4122 37.4141 29.2499 39.0514L38.9495 30.4858C34.8224 25.7212 28.4098 22.9356 21.6172 22.9572Z" fill="#FBBC05"/>
</g>
<defs>
<clipPath id="clip0_4785_57696">
<rect width="77" height="68" fill="white"/>
</clipPath>
</defs>
</svg>
