<svg width="18" height="19" viewBox="0 0 18 19" fill="none" xmlns="http://www.w3.org/2000/svg">
<path d="M7.78125 17.4062C7.78125 17.5969 7.70552 17.7797 7.57073 17.9145C7.43594 18.0493 7.25312 18.125 7.0625 18.125H1.3125C1.12188 18.125 0.939059 18.0493 0.804267 17.9145C0.669475 17.7797 0.59375 17.5969 0.59375 17.4062V1.59375C0.59375 1.40313 0.669475 1.22031 0.804267 1.08552C0.939059 0.950725 1.12188 0.875 1.3125 0.875H7.0625C7.25312 0.875 7.43594 0.950725 7.57073 1.08552C7.70552 1.22031 7.78125 1.40313 7.78125 1.59375C7.78125 1.78437 7.70552 1.96719 7.57073 2.10198C7.43594 2.23677 7.25312 2.3125 7.0625 2.3125H2.03125V16.6875H7.0625C7.25312 16.6875 7.43594 16.7632 7.57073 16.898C7.70552 17.0328 7.78125 17.2156 7.78125 17.4062ZM17.6335 8.99148L14.0398 5.39773C13.9049 5.26287 13.722 5.1871 13.5312 5.1871C13.3405 5.1871 13.1576 5.26287 13.0227 5.39773C12.8879 5.5326 12.8121 5.71552 12.8121 5.90625C12.8121 6.09698 12.8879 6.2799 13.0227 6.41477L15.3901 8.78125H7.0625C6.87188 8.78125 6.68906 8.85698 6.55427 8.99177C6.41948 9.12656 6.34375 9.30938 6.34375 9.5C6.34375 9.69062 6.41948 9.87344 6.55427 10.0082C6.68906 10.143 6.87188 10.2188 7.0625 10.2188H15.3901L13.0227 12.5852C12.8879 12.7201 12.8121 12.903 12.8121 13.0938C12.8121 13.2845 12.8879 13.4674 13.0227 13.6023C13.1576 13.7371 13.3405 13.8129 13.5312 13.8129C13.722 13.8129 13.9049 13.7371 14.0398 13.6023L17.6335 10.0085C17.7003 9.94176 17.7534 9.86249 17.7895 9.77524C17.8257 9.68798 17.8443 9.59445 17.8443 9.5C17.8443 9.40555 17.8257 9.31202 17.7895 9.22476C17.7534 9.13751 17.7003 9.05824 17.6335 8.99148Z" fill="#6e6b7b"/>
</svg>
