<svg width="45" height="45" viewBox="0 0 45 45" fill="none" xmlns="http://www.w3.org/2000/svg">
<g clip-path="url(#clip0_7322_27502)">
<path d="M22.501 8.30273C18.1735 8.30273 14.6523 11.8235 14.6523 16.1514C14.6523 20.479 18.1735 23.9998 22.501 23.9998C26.8286 23.9998 30.3497 20.479 30.3497 16.1514C30.3497 11.8235 26.8286 8.30273 22.501 8.30273Z" fill="#5F5F5F"/>
<path d="M22.5 0C10.0933 0 0 10.0933 0 22.5C0 28.2404 2.1619 33.4843 5.71255 37.4637C6.47301 34.1246 8.21812 31.0779 10.7663 28.7045C12.5546 27.0387 14.6472 25.7921 16.909 25.0169C13.9701 23.1571 12.0146 19.878 12.0146 16.1506C12.0146 10.3687 16.7184 5.66517 22.5 5.66517C28.2816 5.66517 32.9851 10.3687 32.9851 16.1506C32.9851 19.8763 31.0312 23.1544 28.0944 25.0145C30.5444 25.8536 32.7901 27.2468 34.6753 29.132C36.9786 31.4353 38.5689 34.3306 39.2857 37.4651C42.8378 33.4856 45 28.241 45 22.5C45 10.0933 34.9067 0 22.5 0Z" fill="#5F5F5F"/>
<path d="M8.00781 39.6957C11.9258 43.0033 16.984 45 22.5008 45C28.0177 45 33.0759 43.0029 36.9939 39.6957C36.633 36.4176 35.1598 33.3446 32.8119 30.9966C30.057 28.2418 26.3951 26.7246 22.5008 26.7246C15.0837 26.7246 8.8129 32.3829 8.00781 39.6957Z" fill="#5F5F5F"/>
</g>
<defs>
<clipPath id="clip0_7322_27502">
<rect width="45" height="45" fill="white"/>
</clipPath>
</defs>
</svg>
