<svg width="21" height="19" viewBox="0 0 21 19" fill="none" xmlns="http://www.w3.org/2000/svg">
<path d="M10.5 5.18935C9.64706 5.18935 8.81328 5.44228 8.10409 5.91614C7.3949 6.39001 6.84216 7.06353 6.51576 7.85153C6.18935 8.63954 6.10395 9.50664 6.27035 10.3432C6.43675 11.1797 6.84748 11.9481 7.45059 12.5513C8.0537 13.1544 8.82212 13.5651 9.65866 13.7315C10.4952 13.8979 11.3623 13.8125 12.1503 13.4861C12.9383 13.1597 13.6118 12.6069 14.0857 11.8978C14.5596 11.1886 14.8125 10.3548 14.8125 9.50185C14.8113 8.35847 14.3566 7.26226 13.5481 6.45377C12.7396 5.64528 11.6434 5.19054 10.5 5.18935ZM10.5 12.3769C9.93137 12.3769 9.37551 12.2082 8.90272 11.8923C8.42993 11.5764 8.06144 11.1274 7.84383 10.6021C7.62623 10.0767 7.5693 9.49867 7.68023 8.94097C7.79116 8.38328 8.06498 7.871 8.46706 7.46892C8.86913 7.06685 9.38141 6.79303 9.9391 6.6821C10.4968 6.57116 11.0749 6.6281 11.6002 6.8457C12.1255 7.0633 12.5746 7.4318 12.8905 7.90459C13.2064 8.37738 13.375 8.93323 13.375 9.50185C13.375 10.2644 13.0721 10.9956 12.5329 11.5348C11.9938 12.074 11.2625 12.3769 10.5 12.3769ZM20.3774 7.634C20.3574 7.53279 20.3158 7.43707 20.2555 7.35336C20.1952 7.26964 20.1176 7.19989 20.0279 7.14885L17.3479 5.6215L17.3371 2.60096C17.3368 2.49693 17.3139 2.39421 17.27 2.2999C17.2261 2.20559 17.1622 2.12193 17.0828 2.05471C16.1107 1.23236 14.9911 0.602172 13.7838 0.197636C13.6887 0.165454 13.5879 0.153544 13.488 0.162674C13.388 0.171803 13.2911 0.20177 13.2034 0.250644L10.5 1.76182L7.79389 0.247948C7.70616 0.198799 7.6091 0.168606 7.50897 0.159321C7.40884 0.150035 7.30788 0.161864 7.2126 0.194042C6.00614 0.601535 4.88789 1.23413 3.91714 2.0583C3.83787 2.12543 3.77409 2.20894 3.73019 2.30309C3.6863 2.39723 3.66333 2.49978 3.66288 2.60365L3.6494 5.62689L0.969363 7.15424C0.8797 7.20528 0.802078 7.27503 0.741772 7.35875C0.681466 7.44246 0.639891 7.53818 0.619871 7.63939C0.374594 8.87195 0.374594 10.1407 0.619871 11.3733C0.639891 11.4745 0.681466 11.5702 0.741772 11.6539C0.802078 11.7377 0.8797 11.8074 0.969363 11.8585L3.6494 13.3858L3.66018 16.4063C3.66051 16.5104 3.68341 16.6131 3.72731 16.7074C3.77121 16.8017 3.83505 16.8854 3.91444 16.9526C4.88661 17.7749 6.00614 18.4051 7.2135 18.8097C7.30858 18.8419 7.40935 18.8538 7.50931 18.8446C7.60928 18.8355 7.70622 18.8055 7.79389 18.7567L10.5 17.2419L13.2061 18.7558C13.3132 18.8154 13.4339 18.8464 13.5565 18.8456C13.635 18.8456 13.7129 18.8328 13.7874 18.8079C14.9937 18.4009 16.1119 17.7689 17.0828 16.9454C17.1621 16.8783 17.2259 16.7948 17.2698 16.7006C17.3137 16.6065 17.3366 16.5039 17.3371 16.4001L17.3506 13.3768L20.0306 11.8495C20.1203 11.7984 20.1979 11.7287 20.2582 11.645C20.3185 11.5612 20.3601 11.4655 20.3801 11.3643C20.624 10.1327 20.6231 8.86522 20.3774 7.634ZM19.0298 10.7704L16.4629 12.2304C16.3505 12.2944 16.2573 12.3875 16.1934 12.4999C16.1413 12.5898 16.0865 12.685 16.0308 12.7749C15.9595 12.8882 15.9215 13.0192 15.9212 13.1531L15.9077 16.0506C15.2177 16.5924 14.4491 17.0256 13.6283 17.3353L11.0391 15.8924C10.9316 15.833 10.8106 15.802 10.6878 15.8026H10.6707C10.562 15.8026 10.4524 15.8026 10.3437 15.8026C10.2151 15.7994 10.088 15.8304 9.9753 15.8924L7.38421 17.3389C6.5617 17.0316 5.79094 16.6005 5.09858 16.0604L5.0887 13.1675C5.08826 13.0333 5.05029 12.902 4.97909 12.7883C4.92339 12.6985 4.86858 12.6087 4.81737 12.5134C4.75387 12.3992 4.66076 12.3042 4.54784 12.2385L1.97831 10.7749C1.84534 9.93384 1.84534 9.07706 1.97831 8.23596L4.54065 6.7733C4.65312 6.70935 4.74623 6.61623 4.81018 6.50377C4.86229 6.41392 4.9171 6.31869 4.9728 6.22885C5.0441 6.11555 5.08209 5.98447 5.08241 5.8506L5.09589 2.95314C5.78582 2.41134 6.55446 1.97809 7.37522 1.66838L9.96093 3.11127C10.0735 3.17365 10.2007 3.20467 10.3293 3.20111C10.438 3.20111 10.5476 3.20111 10.6563 3.20111C10.7849 3.20432 10.912 3.17332 11.0247 3.11127L13.6158 1.66478C14.4383 1.97212 15.209 2.40324 15.9014 2.94326L15.9113 5.83623C15.9117 5.97036 15.9497 6.10169 16.0209 6.21537C16.0766 6.30521 16.1314 6.39506 16.1826 6.49029C16.2461 6.6045 16.3392 6.69947 16.4521 6.76521L19.0217 8.22877C19.1564 9.07052 19.1579 9.92823 19.0262 10.7704H19.0298Z" fill="#6e6b7b"/>
</svg>
