<svg width="31" height="30" fill="none" xmlns="http://www.w3.org/2000/svg" >
  <path
    d="M21.305 1.299a15 15 0 108.895 13.71l-.046-1.38c0-.266-.215-.729-.654-.729-.408 0-.667.42-.7.729v1.379a13.6 13.6 0 11-8.065-12.43c.322.107 1.095.231 1.265-.278.2-.6-.363-.868-.695-1.001z"
    fill="#D9D9D9" />
  <path fill-rule="evenodd" clip-rule="evenodd"
    d="M9.67 14.761a.859.859 0 00-1.018-.149.865.865 0 00-.2 1.37l3.845 3.857c.48.482 1.26.481 1.74 0L26.948 6.87a.864.864 0 00-.007-1.225.857.857 0 00-1.21.007L14.037 17.396a1.227 1.227 0 01-1.74 0L9.67 14.762z"
    fill="#D9D9D9" />
</svg>