<svg width="31" height="30" viewBox="0 0 31 30" fill="none" xmlns="http://www.w3.org/2000/svg">
<path d="M15.5 30C7.2155 30 0.5 23.2845 0.5 15C0.5 6.7155 7.2155 0 15.5 0C23.7845 0 30.5 6.7155 30.5 15C30.5 23.2845 23.7845 30 15.5 30ZM15.5 27C18.6826 27 21.7348 25.7357 23.9853 23.4853C26.2357 21.2348 27.5 18.1826 27.5 15C27.5 11.8174 26.2357 8.76516 23.9853 6.51472C21.7348 4.26428 18.6826 3 15.5 3C12.3174 3 9.26516 4.26428 7.01472 6.51472C4.76428 8.76516 3.5 11.8174 3.5 15C3.5 18.1826 4.76428 21.2348 7.01472 23.4853C9.26516 25.7357 12.3174 27 15.5 27ZM10.25 18H18.5C18.6989 18 18.8897 17.921 19.0303 17.7803C19.171 17.6397 19.25 17.4489 19.25 17.25C19.25 17.0511 19.171 16.8603 19.0303 16.7197C18.8897 16.579 18.6989 16.5 18.5 16.5H12.5C11.5054 16.5 10.5516 16.1049 9.84835 15.4017C9.14509 14.6984 8.75 13.7446 8.75 12.75C8.75 11.7554 9.14509 10.8016 9.84835 10.0983C10.5516 9.39509 11.5054 9 12.5 9H14V6H17V9H20.75V12H12.5C12.3011 12 12.1103 12.079 11.9697 12.2197C11.829 12.3603 11.75 12.5511 11.75 12.75C11.75 12.9489 11.829 13.1397 11.9697 13.2803C12.1103 13.421 12.3011 13.5 12.5 13.5H18.5C19.4946 13.5 20.4484 13.8951 21.1517 14.5984C21.8549 15.3016 22.25 16.2554 22.25 17.25C22.25 18.2446 21.8549 19.1984 21.1517 19.9017C20.4484 20.6049 19.4946 21 18.5 21H17V24H14V21H10.25V18Z" fill="#D9D9D9"/>
</svg>
