<svg width="28" height="30" viewBox="0 0 28 30" fill="none" xmlns="http://www.w3.org/2000/svg">
<path d="M26.9876 25.6755H1.17825C1.0256 25.6755 0.879146 25.6151 0.770837 25.5076C0.662527 25.4 0.60115 25.254 0.600098 25.1013V7.81671C0.600098 7.66338 0.66101 7.51633 0.769433 7.4079C0.877857 7.29948 1.02491 7.23857 1.17825 7.23857H2.66947C2.74916 7.23193 2.82936 7.2419 2.905 7.26784C2.98064 7.29378 3.05008 7.33514 3.10892 7.38929C3.16777 7.44343 3.21474 7.5092 3.24687 7.58243C3.279 7.65566 3.29559 7.73475 3.29559 7.81472C3.29559 7.89469 3.279 7.97378 3.24687 8.04701C3.21474 8.12024 3.16777 8.18601 3.10892 8.24015C3.05008 8.2943 2.98064 8.33566 2.905 8.3616C2.82936 8.38754 2.74916 8.39751 2.66947 8.39087H1.75241V24.5232H26.4094V8.40284H25.7755C25.6958 8.40947 25.6156 8.3995 25.5399 8.37356C25.4643 8.34762 25.3948 8.30626 25.336 8.25212C25.2772 8.19797 25.2302 8.1322 25.1981 8.05897C25.1659 7.98575 25.1493 7.90665 25.1493 7.82668C25.1493 7.74672 25.1659 7.66762 25.1981 7.59439C25.2302 7.52116 25.2772 7.4554 25.336 7.40125C25.3948 7.3471 25.4643 7.30575 25.5399 7.2798C25.6156 7.25386 25.6958 7.24389 25.7755 7.25053H26.9716C27.0474 7.25053 27.1223 7.26551 27.1923 7.29461C27.2622 7.32371 27.3257 7.36636 27.379 7.4201C27.4324 7.47384 27.4746 7.53761 27.5032 7.60773C27.5318 7.67785 27.5463 7.75294 27.5458 7.82868V25.1013C27.5458 25.2509 27.4875 25.3946 27.3833 25.5018C27.279 25.609 27.1371 25.6714 26.9876 25.6755Z" fill="#D9D9D9"/>
<path d="M16.5498 29.9979H11.6256C11.5343 29.9986 11.4442 29.9772 11.3629 29.9355C11.2817 29.8939 11.2118 29.8332 11.1591 29.7587C11.1049 29.6852 11.069 29.5998 11.0545 29.5096C11.0399 29.4195 11.0471 29.3272 11.0753 29.2403C11.4901 27.9532 11.4901 26.5682 11.0753 25.281C11.0471 25.1942 11.0399 25.1019 11.0545 25.0117C11.069 24.9216 11.1049 24.8362 11.1591 24.7627C11.2118 24.6882 11.2817 24.6275 11.3629 24.5858C11.4442 24.5442 11.5343 24.5228 11.6256 24.5235H16.5498C16.6408 24.524 16.7304 24.546 16.8113 24.5877C16.8922 24.6294 16.9622 24.6896 17.0154 24.7635C17.0686 24.8373 17.1037 24.9226 17.1177 25.0126C17.1317 25.1025 17.1243 25.1945 17.096 25.281C16.6853 26.5688 16.6853 27.9525 17.096 29.2403C17.1243 29.3269 17.1317 29.4188 17.1177 29.5088C17.1037 29.5987 17.0686 29.6841 17.0154 29.7579C16.9622 29.8318 16.8922 29.892 16.8113 29.9337C16.7304 29.9754 16.6408 29.9974 16.5498 29.9979ZM12.3752 28.8456H15.7922C15.5701 27.7939 15.5701 26.7075 15.7922 25.6558H12.3752C12.5932 26.7079 12.5932 27.7935 12.3752 28.8456Z" fill="#D9D9D9"/>
<path d="M20.221 29.9981H7.94033C7.7958 29.986 7.66107 29.9201 7.56287 29.8134C7.46466 29.7067 7.41016 29.5669 7.41016 29.4219C7.41016 29.2769 7.46466 29.1371 7.56287 29.0304C7.66107 28.9237 7.7958 28.8578 7.94033 28.8457H20.221C20.3007 28.8391 20.3809 28.8491 20.4565 28.875C20.5322 28.901 20.6016 28.9423 20.6604 28.9965C20.7193 29.0506 20.7663 29.1164 20.7984 29.1896C20.8305 29.2628 20.8471 29.3419 20.8471 29.4219C20.8471 29.5019 20.8305 29.581 20.7984 29.6542C20.7663 29.7274 20.7193 29.7932 20.6604 29.8473C20.6016 29.9015 20.5322 29.9428 20.4565 29.9688C20.3809 29.9947 20.3007 30.0047 20.221 29.9981Z" fill="#ECECEC"/>
<path d="M19.9028 13.3434H8.26011C7.20281 13.344 6.18528 12.9403 5.41595 12.215C4.64662 11.4897 4.18372 10.4978 4.12205 9.44226C4.06038 8.38676 4.40462 7.34762 5.08425 6.53769C5.76388 5.72776 6.72748 5.20833 7.77765 5.08581C7.52691 4.03067 7.70119 2.91925 8.26285 1.9915C8.82451 1.06375 9.7285 0.394101 10.7796 0.127127C11.8308 -0.139848 12.9448 0.0172728 13.8811 0.564566C14.8174 1.11186 15.5009 2.00542 15.784 3.05232C15.9621 3.02434 16.142 3.00968 16.3223 3.00846C17.0433 3.01067 17.7514 3.20086 18.3765 3.56026C19.0016 3.91966 19.5222 4.43586 19.8869 5.0579C20.9856 5.0579 22.0393 5.49436 22.8162 6.27128C23.5931 7.04819 24.0296 8.10191 24.0296 9.20063C24.0296 10.2993 23.5931 11.3531 22.8162 12.13C22.0393 12.9069 20.9856 13.3434 19.8869 13.3434H19.9028ZM8.26011 6.21021C7.81486 6.20964 7.3751 6.3085 6.97294 6.49958C6.57078 6.69066 6.21636 6.96913 5.93556 7.31467C5.50656 7.84985 5.27181 8.51474 5.26969 9.20063C5.27074 9.99341 5.58614 10.7534 6.14673 11.314C6.70731 11.8746 7.46732 12.19 8.26011 12.1911H19.9028C20.6959 12.1911 21.4565 11.876 22.0174 11.3152C22.5782 10.7544 22.8932 9.99374 22.8932 9.20063C22.8923 8.51331 22.6575 7.84677 22.2274 7.31068C21.946 6.96609 21.5914 6.68853 21.1893 6.49817C20.7872 6.30781 20.3477 6.20944 19.9028 6.21021C19.851 6.21021 19.8031 6.21021 19.7553 6.21021H19.6197C19.5009 6.22201 19.3814 6.19647 19.2777 6.13716C19.1741 6.07784 19.0916 5.9877 19.0416 5.87927C18.8041 5.36011 18.4229 4.91978 17.9432 4.61031C17.4634 4.30084 16.9051 4.13517 16.3342 4.13286C16.0527 4.13786 15.7734 4.18353 15.5049 4.26843C15.4249 4.2909 15.3411 4.29576 15.2591 4.28267C15.177 4.26958 15.0988 4.23885 15.0299 4.19261C14.9609 4.14636 14.9027 4.0857 14.8595 4.01481C14.8162 3.94392 14.7888 3.86448 14.7792 3.78199C14.6836 3.03093 14.3059 2.34436 13.7227 1.86151C13.1395 1.37866 12.3946 1.13568 11.6389 1.18183C10.8831 1.22799 10.1733 1.55983 9.6532 2.11005C9.13313 2.66028 8.84179 3.38771 8.83826 4.14482C8.83927 4.57663 8.93595 5.00285 9.12135 5.39283C9.17184 5.49025 9.19376 5.59997 9.18459 5.70931C9.17542 5.81866 9.13553 5.92319 9.06952 6.01085C9.01219 6.09443 8.93348 6.16109 8.84161 6.20387C8.74973 6.24665 8.64805 6.26399 8.54719 6.25407H8.41162C8.35979 6.21818 8.31194 6.21021 8.26011 6.21021Z" fill="#D9D9D9"/>
</svg>
