<svg width="27" height="30" viewBox="0 0 27 30" fill="none" xmlns="http://www.w3.org/2000/svg">
<path d="M13.0313 30C12.8854 29.9996 12.7417 29.9643 12.6124 29.8968C-2.08406 21.8596 0.107357 9.23311 0.125568 9.08135C0.15514 8.93535 0.220555 8.79898 0.315924 8.68454C0.411294 8.5701 0.533624 8.48116 0.671905 8.42575L0.963286 8.31041C5.3628 6.61732 9.27801 3.8675 12.3635 0.303535C12.4467 0.208214 12.5493 0.131807 12.6645 0.0794542C12.7797 0.0271009 12.9048 1.47768e-05 13.0313 1.47768e-05C13.157 -0.00072151 13.2814 0.0260659 13.3957 0.0784989C13.51 0.130932 13.6115 0.207741 13.6929 0.303535C16.7782 3.87357 20.6929 6.63137 25.0932 8.33469L25.3846 8.45003C25.5241 8.50351 25.6475 8.59186 25.7432 8.70663C25.8388 8.8214 25.9035 8.95878 25.9309 9.10564C25.9309 9.23312 28.1466 21.8535 13.4501 29.8968C13.3208 29.9643 13.1771 29.9996 13.0313 30ZM1.78886 9.89479C1.55212 12.1166 1.32144 21.4953 13.0313 28.106C24.6258 21.5439 24.474 12.0801 24.2676 9.89479C19.9897 8.20617 16.1486 5.57282 13.0313 2.19143C9.9134 5.57501 6.06982 8.20865 1.78886 9.89479Z" fill="#D9D9D9"/>
<path d="M13.226 29.933C13.1097 29.9338 12.9943 29.9114 12.8868 29.8671C12.7792 29.8228 12.6816 29.7574 12.5996 29.6749C12.5176 29.5923 12.453 29.4943 12.4094 29.3864C12.3658 29.2785 12.3442 29.1631 12.3458 29.0467V0.807175C12.3641 0.587133 12.4645 0.382014 12.6269 0.2325C12.7894 0.0829861 13.0022 0 13.223 0C13.4438 0 13.6565 0.0829861 13.819 0.2325C13.9815 0.382014 14.0818 0.587133 14.1001 0.807175V29.0467C14.1026 29.1628 14.0817 29.2781 14.0388 29.386C13.9959 29.4938 13.9318 29.5919 13.8503 29.6745C13.7688 29.7572 13.6716 29.8226 13.5643 29.867C13.4571 29.9114 13.3421 29.9339 13.226 29.933Z" fill="#D9D9D9"/>
<path d="M24.8183 15.7104H1.34404C1.124 15.6921 0.918879 15.5917 0.769365 15.4293C0.619851 15.2668 0.536865 15.054 0.536865 14.8332C0.536865 14.6124 0.619851 14.3997 0.769365 14.2372C0.918879 14.0747 1.124 13.9744 1.34404 13.9561H24.8183C25.0384 13.9744 25.2435 14.0747 25.393 14.2372C25.5425 14.3997 25.6255 14.6124 25.6255 14.8332C25.6255 15.054 25.5425 15.2668 25.393 15.4293C25.2435 15.5917 25.0384 15.6921 24.8183 15.7104Z" fill="#D9D9D9"/>
</svg>
