<svg width="31" height="30" viewBox="0 0 31 30" fill="none" xmlns="http://www.w3.org/2000/svg">
<g clip-path="url(#clip0_43_6402)">
<path d="M19.8969 9.6803L19.897 9.68034C26.004 13.6348 27.3492 19.9437 24.7185 24.4371C23.463 26.5816 20.9072 27.8743 17.8822 27.9914C14.8725 28.1079 11.5297 27.0437 8.89947 24.637C5.28063 21.3226 3.18071 15.1512 2.1904 9.81368C1.70063 7.17394 1.49699 4.81818 1.50003 3.24092C1.50027 3.1176 1.50179 3.00085 1.50442 2.89065C4.46177 5.50085 7.51978 6.30245 10.4758 6.84054C10.964 6.92942 11.4455 7.01107 11.921 7.09172C14.7184 7.56617 17.3116 8.00598 19.8969 9.6803Z" stroke="#ECECEC" stroke-width="2" stroke-linecap="round" stroke-linejoin="round"/>
<mask id="path-2-inside-1_43_6402" fill="white">
<path d="M9.49219 14.7971C15.6794 20.6246 22.0825 24.0779 30.5 25.3729L9.49219 14.7971Z"/>
</mask>
<path d="M14.9772 8.97351C11.7609 5.94421 6.69787 6.0958 3.66858 9.31209C0.639277 12.5284 0.790866 17.5914 4.00716 20.6207L14.9772 8.97351ZM29.2835 33.2799C33.6504 33.9517 37.7351 30.9563 38.4069 26.5894C39.0788 22.2225 36.0833 18.1378 31.7164 17.466L29.2835 33.2799ZM4.00716 20.6207C11.2144 27.4089 19.0618 31.7073 29.2835 33.2799L31.7164 17.466C25.1032 16.4485 20.1445 13.8403 14.9772 8.97351L4.00716 20.6207Z" fill="#ECECEC" mask="url(#path-2-inside-1_43_6402)"/>
</g>
<defs>
<clipPath id="clip0_43_6402">
<rect width="30" height="30" fill="white" transform="translate(0.5)"/>
</clipPath>
</defs>
</svg>
