<svg width="17" height="17" viewBox="0 0 17 17" fill="none" xmlns="http://www.w3.org/2000/svg">
<path d="M6.34375 0.59375H2.03125C1.65 0.59375 1.28437 0.7452 1.01478 1.01478C0.7452 1.28437 0.59375 1.65 0.59375 2.03125V6.34375C0.59375 6.725 0.7452 7.09063 1.01478 7.36022C1.28437 7.6298 1.65 7.78125 2.03125 7.78125H6.34375C6.725 7.78125 7.09063 7.6298 7.36022 7.36022C7.6298 7.09063 7.78125 6.725 7.78125 6.34375V2.03125C7.78125 1.65 7.6298 1.28437 7.36022 1.01478C7.09063 0.7452 6.725 0.59375 6.34375 0.59375ZM6.34375 6.34375H2.03125V2.03125H6.34375V6.34375ZM14.9688 0.59375H10.6562C10.275 0.59375 9.90937 0.7452 9.63978 1.01478C9.3702 1.28437 9.21875 1.65 9.21875 2.03125V6.34375C9.21875 6.725 9.3702 7.09063 9.63978 7.36022C9.90937 7.6298 10.275 7.78125 10.6562 7.78125H14.9688C15.35 7.78125 15.7156 7.6298 15.9852 7.36022C16.2548 7.09063 16.4062 6.725 16.4062 6.34375V2.03125C16.4062 1.65 16.2548 1.28437 15.9852 1.01478C15.7156 0.7452 15.35 0.59375 14.9688 0.59375ZM14.9688 6.34375H10.6562V2.03125H14.9688V6.34375ZM6.34375 9.21875H2.03125C1.65 9.21875 1.28437 9.3702 1.01478 9.63978C0.7452 9.90937 0.59375 10.275 0.59375 10.6562V14.9688C0.59375 15.35 0.7452 15.7156 1.01478 15.9852C1.28437 16.2548 1.65 16.4062 2.03125 16.4062H6.34375C6.725 16.4062 7.09063 16.2548 7.36022 15.9852C7.6298 15.7156 7.78125 15.35 7.78125 14.9688V10.6562C7.78125 10.275 7.6298 9.90937 7.36022 9.63978C7.09063 9.3702 6.725 9.21875 6.34375 9.21875ZM6.34375 14.9688H2.03125V10.6562H6.34375V14.9688ZM14.9688 9.21875H10.6562C10.275 9.21875 9.90937 9.3702 9.63978 9.63978C9.3702 9.90937 9.21875 10.275 9.21875 10.6562V14.9688C9.21875 15.35 9.3702 15.7156 9.63978 15.9852C9.90937 16.2548 10.275 16.4062 10.6562 16.4062H14.9688C15.35 16.4062 15.7156 16.2548 15.9852 15.9852C16.2548 15.7156 16.4062 15.35 16.4062 14.9688V10.6562C16.4062 10.275 16.2548 9.90937 15.9852 9.63978C15.7156 9.3702 15.35 9.21875 14.9688 9.21875ZM14.9688 14.9688H10.6562V10.6562H14.9688V14.9688Z" fill="white"/>
</svg>
