<svg width="23" height="19" viewBox="0 0 23 19" fill="none" xmlns="http://www.w3.org/2000/svg">
<path d="M22.7898 10.0096L20.6336 12.1659C20.5668 12.2327 20.4875 12.2857 20.4003 12.3219C20.313 12.3581 20.2195 12.3767 20.125 12.3767C20.0306 12.3767 19.937 12.3581 19.8498 12.3219C19.7625 12.2857 19.6833 12.2327 19.6165 12.1659L17.4603 10.0096C17.3254 9.87477 17.2496 9.69186 17.2496 9.50113C17.2496 9.31039 17.3254 9.12748 17.4603 8.99261C17.5951 8.85774 17.7781 8.78198 17.9688 8.78198C18.1595 8.78198 18.3424 8.85774 18.4773 8.99261L19.4063 9.92249V9.50113C19.4071 7.82701 18.8765 6.19583 17.8909 4.84259C16.9053 3.48935 15.5156 2.48389 13.9219 1.97106C12.3283 1.45823 10.613 1.4645 9.02316 1.98897C7.43332 2.51344 6.05099 3.52903 5.07531 4.88944C4.96403 5.04433 4.79578 5.14866 4.60758 5.17949C4.41938 5.21033 4.22663 5.16514 4.07175 5.05386C3.91687 4.94258 3.81254 4.77434 3.7817 4.58613C3.75087 4.39793 3.79606 4.20519 3.90734 4.0503C5.06047 2.44257 6.69418 1.24237 8.57313 0.622602C10.4521 0.00283521 12.4792 -0.00450341 14.3626 0.601643C16.246 1.20779 17.8884 2.39613 19.0531 3.99547C20.2178 5.59482 20.8448 7.52261 20.8438 9.50113V9.92249L21.7728 8.99261C21.9076 8.85774 22.0906 8.78198 22.2813 8.78198C22.472 8.78198 22.6549 8.85774 22.7898 8.99261C22.9247 9.12748 23.0004 9.31039 23.0004 9.50113C23.0004 9.69186 22.9247 9.87477 22.7898 10.0096ZM19.09 14.951C17.9366 16.5576 16.3031 17.7567 14.4248 18.3757C12.5464 18.9948 10.5201 19.0019 8.63746 18.396C6.75484 17.7901 5.11302 16.6024 3.94834 15.004C2.78366 13.4056 2.1562 11.4788 2.15628 9.50113V9.07976L1.2273 10.0096C1.09243 10.1445 0.909514 10.2203 0.718783 10.2203C0.528053 10.2203 0.345135 10.1445 0.210268 10.0096C0.0754011 9.87477 -0.000366211 9.69186 -0.000366211 9.50113C-0.000366211 9.31039 0.0754011 9.12748 0.210268 8.99261L2.36652 6.83636C2.43327 6.76953 2.51254 6.71652 2.5998 6.68035C2.68705 6.64418 2.78058 6.62556 2.87503 6.62556C2.96949 6.62556 3.06302 6.64418 3.15027 6.68035C3.23753 6.71652 3.3168 6.76953 3.38355 6.83636L5.5398 8.99261C5.67467 9.12748 5.75043 9.31039 5.75043 9.50113C5.75043 9.69186 5.67467 9.87477 5.5398 10.0096C5.40493 10.1445 5.22201 10.2203 5.03128 10.2203C4.84055 10.2203 4.65763 10.1445 4.52277 10.0096L3.59378 9.07976V9.50113C3.59208 11.4365 4.30341 13.3047 5.59191 14.7489C6.39352 13.5873 7.52069 12.6886 8.83167 12.1659C8.12747 11.6112 7.6136 10.8509 7.36154 9.99068C7.10947 9.13044 7.13174 8.21303 7.42525 7.36603C7.71875 6.51903 8.26891 5.78455 8.9992 5.26471C9.72949 4.74488 10.6036 4.46554 11.5 4.46554C12.3964 4.46554 13.2706 4.74488 14.0009 5.26471C14.7312 5.78455 15.2813 6.51903 15.5748 7.36603C15.8683 8.21303 15.8906 9.13044 15.6385 9.99068C15.3865 10.8509 14.8726 11.6112 14.1684 12.1659C15.4806 12.6887 16.6085 13.5884 17.41 14.7516C17.5917 14.5475 17.7629 14.3343 17.923 14.1128C18.0342 13.9579 18.2025 13.8536 18.3907 13.8228C18.5789 13.7919 18.7716 13.8371 18.9265 13.9484C19.0814 14.0597 19.1857 14.2279 19.2166 14.4161C19.2474 14.6043 19.2022 14.7971 19.0909 14.9519L19.09 14.951ZM11.5 11.6574C12.0687 11.6574 12.6245 11.4888 13.0973 11.1728C13.5701 10.8569 13.9386 10.4079 14.1562 9.88259C14.3738 9.35725 14.4307 8.77919 14.3198 8.22149C14.2089 7.66379 13.935 7.15152 13.533 6.74944C13.1309 6.34737 12.6186 6.07355 12.0609 5.96262C11.5032 5.85168 10.9252 5.90862 10.3998 6.12622C9.87448 6.34382 9.42547 6.71232 9.10956 7.18511C8.79365 7.6579 8.62503 8.21375 8.62503 8.78238C8.62503 9.54487 8.92793 10.2761 9.4671 10.8153C10.0063 11.3545 10.7375 11.6574 11.5 11.6574ZM11.5 17.4074C13.2542 17.4051 14.958 16.8208 16.3444 15.7462C15.8245 14.933 15.1082 14.2638 14.2615 13.8002C13.4149 13.3366 12.4652 13.0937 11.5 13.0937C10.5348 13.0937 9.58514 13.3366 8.73853 13.8002C7.89191 14.2638 7.17562 14.933 6.65566 15.7462C8.03999 16.8247 9.74517 17.4094 11.5 17.4074Z" fill="white"/>
</svg>
