<svg width="23" height="15" viewBox="0 0 23 15" fill="none" xmlns="http://www.w3.org/2000/svg">
<path d="M10.5341 10.1864C11.4975 9.54509 12.2288 8.6108 12.6201 7.52169C13.0113 6.43257 13.0417 5.24646 12.7067 4.13876C12.3717 3.03105 11.6891 2.06055 10.7599 1.37078C9.83063 0.681014 8.7041 0.308594 7.54684 0.308594C6.38959 0.308594 5.26305 0.681014 4.33383 1.37078C3.4046 2.06055 2.72202 3.03105 2.38702 4.13876C2.05202 5.24646 2.08239 6.43257 2.47363 7.52169C2.86488 8.6108 3.59623 9.54509 4.55954 10.1864C2.81701 10.8286 1.32885 12.0171 0.317117 13.5744C0.263943 13.6534 0.227009 13.7423 0.208461 13.8357C0.189913 13.9291 0.19012 14.0253 0.209072 14.1186C0.228023 14.212 0.265341 14.3006 0.318855 14.3794C0.372369 14.4582 0.441012 14.5256 0.520795 14.5777C0.600577 14.6297 0.689907 14.6654 0.783593 14.6826C0.877278 14.6998 0.97345 14.6982 1.06652 14.6779C1.15959 14.6576 1.24769 14.619 1.32572 14.5644C1.40374 14.5098 1.47013 14.4402 1.52102 14.3596C2.17364 13.3559 3.06666 12.5311 4.11898 11.9601C5.1713 11.3891 6.34959 11.09 7.54684 11.09C8.7441 11.09 9.92239 11.3891 10.9747 11.9601C12.027 12.5311 12.92 13.3559 13.5727 14.3596C13.6781 14.5163 13.8409 14.6252 14.026 14.6628C14.2111 14.7004 14.4035 14.6636 14.5617 14.5604C14.7198 14.4573 14.831 14.296 14.8713 14.1115C14.9115 13.927 14.8775 13.734 14.7766 13.5744C13.7648 12.0171 12.2767 10.8286 10.5341 10.1864ZM3.59372 5.70141C3.59372 4.91955 3.82556 4.15526 4.25994 3.50517C4.69431 2.85508 5.31171 2.3484 6.03405 2.0492C6.75639 1.74999 7.55123 1.67171 8.31806 1.82424C9.08489 1.97677 9.78927 2.35327 10.3421 2.90612C10.895 3.45898 11.2715 4.16336 11.424 4.93019C11.5765 5.69702 11.4983 6.49186 11.1991 7.2142C10.8999 7.93654 10.3932 8.55393 9.74308 8.98831C9.09299 9.42268 8.3287 9.65453 7.54684 9.65453C6.49877 9.65334 5.49397 9.23647 4.75287 8.49537C4.01178 7.75428 3.59491 6.74948 3.59372 5.70141ZM22.4735 14.569C22.3138 14.6731 22.1194 14.7095 21.9328 14.6703C21.7463 14.631 21.5831 14.5193 21.4789 14.3596C20.8271 13.3553 19.9342 12.5301 18.8816 11.9594C17.8291 11.3886 16.6504 11.0904 15.4531 11.092C15.2625 11.092 15.0797 11.0163 14.9449 10.8815C14.8101 10.7467 14.7343 10.5639 14.7343 10.3733C14.7343 10.1827 14.8101 9.99984 14.9449 9.86505C15.0797 9.73026 15.2625 9.65453 15.4531 9.65453C16.0353 9.65398 16.6101 9.52486 17.1366 9.27639C17.6631 9.02792 18.1281 8.66624 18.4986 8.21719C18.8691 7.76813 19.1359 7.24279 19.2798 6.6787C19.4237 6.11462 19.4413 5.5257 19.3312 4.95404C19.2211 4.38238 18.9862 3.84208 18.6431 3.37175C18.3 2.90143 17.8573 2.51268 17.3466 2.23329C16.8358 1.9539 16.2697 1.79076 15.6886 1.75553C15.1075 1.7203 14.5258 1.81385 13.985 2.02949C13.8969 2.06761 13.802 2.08766 13.7059 2.08847C13.6099 2.08928 13.5146 2.07084 13.4258 2.03422C13.337 1.9976 13.2565 1.94355 13.1889 1.87528C13.1214 1.807 13.0682 1.72587 13.0325 1.63669C12.9968 1.5475 12.9794 1.45207 12.9812 1.35604C12.9831 1.26 13.0041 1.16531 13.0432 1.07755C13.0822 0.989797 13.1385 0.910757 13.2086 0.845104C13.2787 0.779451 13.3612 0.728517 13.4514 0.695312C14.6889 0.201756 16.0654 0.183995 17.3153 0.645455C18.5652 1.10691 19.5999 2.0149 20.2198 3.19424C20.8398 4.37358 21.001 5.74072 20.6724 7.03192C20.3438 8.32311 19.5487 9.44687 18.4404 10.1864C20.1829 10.8286 21.6711 12.0171 22.6828 13.5744C22.7869 13.7341 22.8234 13.9285 22.7841 14.115C22.7448 14.3016 22.6331 14.4648 22.4735 14.569Z" fill="white"/>
</svg>
