<svg width="19" height="19" viewBox="0 0 19 19" fill="none" xmlns="http://www.w3.org/2000/svg">
<path d="M9.5 0.15625C7.65198 0.15625 5.84547 0.704251 4.30889 1.73096C2.77232 2.75766 1.57471 4.21695 0.867505 5.9243C0.160299 7.63165 -0.0247389 9.51037 0.335792 11.3229C0.696322 13.1354 1.58623 14.8003 2.89298 16.107C4.19972 17.4138 5.86462 18.3037 7.67713 18.6642C9.48964 19.0247 11.3684 18.8397 13.0757 18.1325C14.783 17.4253 16.2423 16.2277 17.269 14.6911C18.2958 13.1545 18.8438 11.348 18.8438 9.5C18.8411 7.02269 17.8559 4.64759 16.1041 2.89586C14.3524 1.14413 11.9773 0.158866 9.5 0.15625ZM9.5 17.4062C7.9363 17.4062 6.4077 16.9426 5.10753 16.0738C3.80735 15.2051 2.79399 13.9703 2.19558 12.5256C1.59718 11.0809 1.44061 9.49123 1.74567 7.95757C2.05073 6.4239 2.80373 5.01515 3.90944 3.90944C5.01515 2.80373 6.42391 2.05073 7.95757 1.74567C9.49123 1.4406 11.0809 1.59717 12.5256 2.19558C13.9703 2.79398 15.2051 3.80735 16.0738 5.10752C16.9426 6.4077 17.4063 7.93629 17.4063 9.5C17.4039 11.5961 16.5701 13.6057 15.0879 15.0879C13.6057 16.5701 11.5961 17.4039 9.5 17.4062ZM10.5781 9.5C10.5781 9.71323 10.5149 9.92168 10.3964 10.099C10.278 10.2763 10.1096 10.4145 9.91258 10.4961C9.71558 10.5777 9.49881 10.599 9.28967 10.5574C9.08054 10.5158 8.88843 10.4131 8.73765 10.2623C8.58688 10.1116 8.48419 9.91947 8.44259 9.71033C8.401 9.5012 8.42235 9.28442 8.50395 9.08742C8.58555 8.89042 8.72373 8.72204 8.90103 8.60357C9.07833 8.48511 9.28677 8.42188 9.5 8.42188C9.78594 8.42188 10.0602 8.53546 10.2624 8.73765C10.4645 8.93984 10.5781 9.21406 10.5781 9.5ZM14.5313 9.5C14.5313 9.71323 14.468 9.92168 14.3496 10.099C14.2311 10.2763 14.0627 10.4145 13.8657 10.4961C13.6687 10.5777 13.4519 10.599 13.2428 10.5574C13.0337 10.5158 12.8416 10.4131 12.6908 10.2623C12.54 10.1116 12.4373 9.91947 12.3957 9.71033C12.3541 9.5012 12.3755 9.28442 12.4571 9.08742C12.5387 8.89042 12.6769 8.72204 12.8542 8.60357C13.0315 8.48511 13.2399 8.42188 13.4531 8.42188C13.7391 8.42188 14.0133 8.53546 14.2155 8.73765C14.4177 8.93984 14.5313 9.21406 14.5313 9.5ZM6.625 9.5C6.625 9.71323 6.56177 9.92168 6.44331 10.099C6.32484 10.2763 6.15646 10.4145 5.95946 10.4961C5.76246 10.5777 5.54568 10.599 5.33655 10.5574C5.12741 10.5158 4.93531 10.4131 4.78453 10.2623C4.63375 10.1116 4.53107 9.91947 4.48947 9.71033C4.44787 9.5012 4.46922 9.28442 4.55082 9.08742C4.63242 8.89042 4.77061 8.72204 4.94791 8.60357C5.1252 8.48511 5.33365 8.42188 5.54688 8.42188C5.83282 8.42188 6.10704 8.53546 6.30923 8.73765C6.51142 8.93984 6.625 9.21406 6.625 9.5Z" fill="white"/>
</svg>
