<svg width="19" height="19" viewBox="0 0 19 19" fill="none" xmlns="http://www.w3.org/2000/svg">
<path d="M9.5 0.15625C7.65198 0.15625 5.84547 0.704251 4.30889 1.73096C2.77232 2.75766 1.57471 4.21695 0.867505 5.9243C0.160299 7.63165 -0.0247389 9.51037 0.335792 11.3229C0.696322 13.1354 1.58623 14.8003 2.89298 16.107C4.19972 17.4138 5.86462 18.3037 7.67713 18.6642C9.48964 19.0247 11.3684 18.8397 13.0757 18.1325C14.783 17.4253 16.2423 16.2277 17.269 14.6911C18.2958 13.1545 18.8438 11.348 18.8438 9.5C18.8411 7.02269 17.8559 4.64759 16.1041 2.89586C14.3524 1.14413 11.9773 0.158866 9.5 0.15625ZM9.5 17.4062C7.9363 17.4062 6.4077 16.9426 5.10753 16.0738C3.80735 15.2051 2.79399 13.9703 2.19558 12.5256C1.59718 11.0809 1.44061 9.49123 1.74567 7.95757C2.05073 6.4239 2.80373 5.01515 3.90944 3.90944C5.01515 2.80373 6.42391 2.05073 7.95757 1.74567C9.49123 1.4406 11.0809 1.59717 12.5256 2.19558C13.9703 2.79398 15.2051 3.80735 16.0738 5.10752C16.9426 6.4077 17.4063 7.93629 17.4063 9.5C17.4039 11.5961 16.5701 13.6057 15.0879 15.0879C13.6057 16.5701 11.5961 17.4039 9.5 17.4062ZM13.0938 11.2969C13.0938 11.9641 12.8287 12.6039 12.3569 13.0757C11.8852 13.5475 11.2453 13.8125 10.5781 13.8125H10.2188V14.5312C10.2188 14.7219 10.143 14.9047 10.0082 15.0395C9.87345 15.1743 9.69063 15.25 9.5 15.25C9.30938 15.25 9.12656 15.1743 8.99177 15.0395C8.85698 14.9047 8.78125 14.7219 8.78125 14.5312V13.8125H7.34375C7.15313 13.8125 6.97031 13.7368 6.83552 13.602C6.70073 13.4672 6.625 13.2844 6.625 13.0938C6.625 12.9031 6.70073 12.7203 6.83552 12.5855C6.97031 12.4507 7.15313 12.375 7.34375 12.375H10.5781C10.8641 12.375 11.1383 12.2614 11.3405 12.0592C11.5427 11.857 11.6563 11.5828 11.6563 11.2969C11.6563 11.0109 11.5427 10.7367 11.3405 10.5345C11.1383 10.3323 10.8641 10.2188 10.5781 10.2188H8.42188C7.75469 10.2188 7.11483 9.95371 6.64306 9.48194C6.17129 9.01017 5.90625 8.37031 5.90625 7.70312C5.90625 7.03594 6.17129 6.39608 6.64306 5.92431C7.11483 5.45254 7.75469 5.1875 8.42188 5.1875H8.78125V4.46875C8.78125 4.27813 8.85698 4.09531 8.99177 3.96052C9.12656 3.82573 9.30938 3.75 9.5 3.75C9.69063 3.75 9.87345 3.82573 10.0082 3.96052C10.143 4.09531 10.2188 4.27813 10.2188 4.46875V5.1875H11.6563C11.8469 5.1875 12.0297 5.26323 12.1645 5.39802C12.2993 5.53281 12.375 5.71563 12.375 5.90625C12.375 6.09687 12.2993 6.27969 12.1645 6.41448C12.0297 6.54927 11.8469 6.625 11.6563 6.625H8.42188C8.13594 6.625 7.86172 6.73859 7.65953 6.94078C7.45734 7.14296 7.34375 7.41719 7.34375 7.70312C7.34375 7.98906 7.45734 8.26329 7.65953 8.46548C7.86172 8.66766 8.13594 8.78125 8.42188 8.78125H10.5781C11.2453 8.78125 11.8852 9.04629 12.3569 9.51806C12.8287 9.98983 13.0938 10.6297 13.0938 11.2969Z" fill="white"/>
</svg>
