<svg width="21" height="18" viewBox="0 0 21 18" fill="none" xmlns="http://www.w3.org/2000/svg">
<path d="M5.46875 9.9375H1.875C1.68438 9.9375 1.50156 9.86178 1.36677 9.72698C1.23198 9.59219 1.15625 9.40937 1.15625 9.21875C1.15625 9.02813 1.23198 8.84531 1.36677 8.71052C1.50156 8.57572 1.68438 8.5 1.875 8.5H5.08422L6.30789 6.66359C6.3735 6.565 6.46246 6.48416 6.56684 6.42823C6.67123 6.37231 6.78783 6.34305 6.90625 6.34305C7.02467 6.34305 7.14127 6.37231 7.24566 6.42823C7.35004 6.48416 7.439 6.565 7.50461 6.66359L9.78125 10.0777L10.6204 8.81984C10.6861 8.72138 10.7751 8.64067 10.8795 8.58488C10.9838 8.52908 11.1004 8.49992 11.2188 8.5H13.375C13.5656 8.5 13.7484 8.57572 13.8832 8.71052C14.018 8.84531 14.0938 9.02813 14.0938 9.21875C14.0938 9.40937 14.018 9.59219 13.8832 9.72698C13.7484 9.86178 13.5656 9.9375 13.375 9.9375H11.6033L10.3796 11.7739C10.314 11.8725 10.225 11.9533 10.1207 12.0093C10.0163 12.0652 9.89968 12.0945 9.78125 12.0945C9.66282 12.0945 9.54624 12.0652 9.44184 12.0093C9.33746 11.9533 9.2485 11.8725 9.18289 11.7739L6.90625 8.35805L6.06711 9.61586C6.00163 9.71465 5.91273 9.79572 5.80833 9.85183C5.70393 9.90795 5.58727 9.93738 5.46875 9.9375ZM14.9922 0.59375C13.1369 0.59375 11.5125 1.39156 10.5 2.74012C9.48746 1.39156 7.86309 0.59375 6.00781 0.59375C4.53098 0.595415 3.11512 1.18282 2.07085 2.2271C1.02657 3.27137 0.439165 4.68723 0.4375 6.16406C0.4375 6.23145 0.4375 6.29883 0.4375 6.36621C0.443457 6.55684 0.524895 6.73729 0.663899 6.86787C0.802903 6.99845 0.988087 7.06846 1.17871 7.0625C1.36934 7.05654 1.54979 6.9751 1.68037 6.8361C1.81094 6.6971 1.88096 6.51191 1.875 6.32129C1.875 6.26918 1.875 6.21617 1.875 6.16406C1.87643 5.06841 2.3123 4.01804 3.08705 3.2433C3.86179 2.46855 4.91216 2.03268 6.00781 2.03125C7.75527 2.03125 9.22242 2.96203 9.83516 4.45703C9.88931 4.58886 9.98143 4.70161 10.0998 4.78096C10.2182 4.86031 10.3575 4.90268 10.5 4.90268C10.6425 4.90268 10.7818 4.86031 10.9002 4.78096C11.0186 4.70161 11.1107 4.58886 11.1648 4.45703C11.7776 2.95934 13.2447 2.03125 14.9922 2.03125C16.0878 2.03268 17.1382 2.46855 17.913 3.2433C18.6877 4.01804 19.1236 5.06841 19.125 6.16406C19.125 10.9806 12.1388 15.3416 10.5 16.2984C9.52699 15.7315 6.66996 13.9625 4.50922 11.6077C4.44539 11.5381 4.36847 11.4817 4.28286 11.4418C4.19725 11.402 4.10463 11.3793 4.01027 11.3752C3.91591 11.3711 3.82168 11.3857 3.73294 11.418C3.6442 11.4503 3.5627 11.4998 3.49309 11.5637C3.42348 11.6275 3.36712 11.7044 3.32723 11.79C3.28735 11.8756 3.26471 11.9683 3.26063 12.0626C3.25654 12.157 3.27108 12.2512 3.30341 12.34C3.33574 12.4287 3.38523 12.5102 3.44906 12.5798C6.24949 15.6345 10.0014 17.6721 10.1595 17.7575C10.2642 17.8138 10.3812 17.8433 10.5 17.8433C10.6188 17.8433 10.7358 17.8138 10.8405 17.7575C11.2376 17.5437 20.5625 12.4531 20.5625 6.16406C20.5608 4.68723 19.9734 3.27137 18.9292 2.2271C17.8849 1.18282 16.469 0.595415 14.9922 0.59375Z" fill="white"/>
</svg>
