<svg width="19" height="15" viewBox="0 0 19 15" fill="none" xmlns="http://www.w3.org/2000/svg">
<path d="M5.1875 1.75C5.1875 1.55938 5.26323 1.37656 5.39802 1.24177C5.53281 1.10698 5.71563 1.03125 5.90625 1.03125H17.4062C17.5969 1.03125 17.7797 1.10698 17.9145 1.24177C18.0493 1.37656 18.125 1.55938 18.125 1.75C18.125 1.94062 18.0493 2.12344 17.9145 2.25823C17.7797 2.39302 17.5969 2.46875 17.4062 2.46875H5.90625C5.71563 2.46875 5.53281 2.39302 5.39802 2.25823C5.26323 2.12344 5.1875 1.94062 5.1875 1.75ZM17.4062 6.78125H5.90625C5.71563 6.78125 5.53281 6.85698 5.39802 6.99177C5.26323 7.12656 5.1875 7.30938 5.1875 7.5C5.1875 7.69062 5.26323 7.87344 5.39802 8.00823C5.53281 8.14303 5.71563 8.21875 5.90625 8.21875H17.4062C17.5969 8.21875 17.7797 8.14303 17.9145 8.00823C18.0493 7.87344 18.125 7.69062 18.125 7.5C18.125 7.30938 18.0493 7.12656 17.9145 6.99177C17.7797 6.85698 17.5969 6.78125 17.4062 6.78125ZM17.4062 12.5312H5.90625C5.71563 12.5312 5.53281 12.607 5.39802 12.7418C5.26323 12.8766 5.1875 13.0594 5.1875 13.25C5.1875 13.4406 5.26323 13.6234 5.39802 13.7582C5.53281 13.893 5.71563 13.9688 5.90625 13.9688H17.4062C17.5969 13.9688 17.7797 13.893 17.9145 13.7582C18.0493 13.6234 18.125 13.4406 18.125 13.25C18.125 13.0594 18.0493 12.8766 17.9145 12.7418C17.7797 12.607 17.5969 12.5312 17.4062 12.5312ZM1.95313 0.671875C1.73989 0.671875 1.53145 0.735106 1.35415 0.853572C1.17685 0.972038 1.03867 1.14042 0.957068 1.33742C0.875467 1.53442 0.854117 1.7512 0.895716 1.96033C0.937316 2.16947 1.04 2.36157 1.19078 2.51235C1.34155 2.66313 1.53366 2.76581 1.74279 2.80741C1.95193 2.84901 2.1687 2.82766 2.36571 2.74606C2.56271 2.66446 2.73109 2.52627 2.84955 2.34897C2.96802 2.17168 3.03125 1.96323 3.03125 1.75C3.03125 1.46406 2.91766 1.18984 2.71548 0.98765C2.51329 0.785463 2.23906 0.671875 1.95313 0.671875ZM1.95313 6.42188C1.73989 6.42188 1.53145 6.48511 1.35415 6.60357C1.17685 6.72204 1.03867 6.89042 0.957068 7.08742C0.875467 7.28442 0.854117 7.5012 0.895716 7.71033C0.937316 7.91947 1.04 8.11157 1.19078 8.26235C1.34155 8.41313 1.53366 8.51581 1.74279 8.55741C1.95193 8.59901 2.1687 8.57766 2.36571 8.49606C2.56271 8.41446 2.73109 8.27627 2.84955 8.09897C2.96802 7.92168 3.03125 7.71323 3.03125 7.5C3.03125 7.21406 2.91766 6.93984 2.71548 6.73765C2.51329 6.53546 2.23906 6.42188 1.95313 6.42188ZM1.95313 12.1719C1.73989 12.1719 1.53145 12.2351 1.35415 12.3536C1.17685 12.472 1.03867 12.6404 0.957068 12.8374C0.875467 13.0344 0.854117 13.2512 0.895716 13.4603C0.937316 13.6695 1.04 13.8616 1.19078 14.0123C1.34155 14.1631 1.53366 14.2658 1.74279 14.3074C1.95193 14.349 2.1687 14.3277 2.36571 14.2461C2.56271 14.1645 2.73109 14.0263 2.84955 13.849C2.96802 13.6717 3.03125 13.4632 3.03125 13.25C3.03125 12.9641 2.91766 12.6898 2.71548 12.4877C2.51329 12.2855 2.23906 12.1719 1.95313 12.1719Z" fill="white"/>
</svg>
