<svg width="17" height="19" viewBox="0 0 17 19" fill="none" xmlns="http://www.w3.org/2000/svg">
<path d="M16.196 3.96023L12.6023 0.366485C12.5355 0.29976 12.4562 0.24685 12.3689 0.210777C12.2817 0.174704 12.1882 0.156176 12.0938 0.15625H4.90625C4.525 0.15625 4.15937 0.307701 3.88978 0.577284C3.6202 0.846868 3.46875 1.2125 3.46875 1.59375V3.03125H2.03125C1.65 3.03125 1.28437 3.1827 1.01478 3.45228C0.7452 3.72187 0.59375 4.0875 0.59375 4.46875V17.4062C0.59375 17.7875 0.7452 18.1531 1.01478 18.4227C1.28437 18.6923 1.65 18.8438 2.03125 18.8438H12.0938C12.475 18.8438 12.8406 18.6923 13.1102 18.4227C13.3798 18.1531 13.5312 17.7875 13.5312 17.4062V15.9688H14.9688C15.35 15.9688 15.7156 15.8173 15.9852 15.5477C16.2548 15.2781 16.4062 14.9125 16.4062 14.5312V4.46875C16.4063 4.37433 16.3878 4.28083 16.3517 4.19358C16.3157 4.10632 16.2627 4.02703 16.196 3.96023ZM12.0938 17.4062H2.03125V4.46875H8.92137L12.0938 7.64113V15.2356C12.0938 15.241 12.0938 15.2455 12.0938 15.25C12.0938 15.2545 12.0938 15.259 12.0938 15.2644V17.4062ZM14.9688 14.5312H13.5312V7.34375C13.5313 7.24933 13.5128 7.15583 13.4767 7.06858C13.4407 6.98132 13.3877 6.90203 13.321 6.83523L9.72727 3.24148C9.66047 3.17476 9.58118 3.12185 9.49392 3.08578C9.40667 3.0497 9.31317 3.03118 9.21875 3.03125H4.90625V1.59375H11.7964L14.9688 4.76613V14.5312ZM9.9375 11.6562C9.9375 11.8469 9.86178 12.0297 9.72698 12.1645C9.59219 12.2993 9.40937 12.375 9.21875 12.375H4.90625C4.71563 12.375 4.53281 12.2993 4.39802 12.1645C4.26323 12.0297 4.1875 11.8469 4.1875 11.6562C4.1875 11.4656 4.26323 11.2828 4.39802 11.148C4.53281 11.0132 4.71563 10.9375 4.90625 10.9375H9.21875C9.40937 10.9375 9.59219 11.0132 9.72698 11.148C9.86178 11.2828 9.9375 11.4656 9.9375 11.6562ZM9.9375 14.5312C9.9375 14.7219 9.86178 14.9047 9.72698 15.0395C9.59219 15.1743 9.40937 15.25 9.21875 15.25H4.90625C4.71563 15.25 4.53281 15.1743 4.39802 15.0395C4.26323 14.9047 4.1875 14.7219 4.1875 14.5312C4.1875 14.3406 4.26323 14.1578 4.39802 14.023C4.53281 13.8882 4.71563 13.8125 4.90625 13.8125H9.21875C9.40937 13.8125 9.59219 13.8882 9.72698 14.023C9.86178 14.1578 9.9375 14.3406 9.9375 14.5312Z" fill="white"/>
</svg>
